<svg width="25" height="24" viewBox="0 0 25 24" fill="none" xmlns="http://www.w3.org/2000/svg">
<path d="M20.5685 4.57996C20.0668 4.07653 19.4707 3.67709 18.8143 3.40455C18.158 3.132 17.4542 2.9917 16.7435 2.9917C16.0328 2.9917 15.3291 3.132 14.6727 3.40455C14.0163 3.67709 13.4202 4.07653 12.9185 4.57996L12.1485 5.35996L11.3785 4.57996C10.8768 4.07653 10.2807 3.67709 9.62434 3.40455C8.96797 3.132 8.26424 2.9917 7.55352 2.9917C6.84281 2.9917 6.13908 3.132 5.4827 3.40455C4.82632 3.67709 4.2302 4.07653 3.72852 4.57996C1.60852 6.69996 1.47852 10.28 4.14852 13L12.1485 21L20.1485 13C22.8185 10.28 22.6885 6.69996 20.5685 4.57996Z" fill="#792315" stroke="#FFF5ED" stroke-width="1.5" stroke-miterlimit="10"/>
<path d="M12.1481 5.35986L9.01814 8.49986C8.62243 8.89881 8.40039 9.43795 8.40039 9.99986C8.40039 10.5618 8.62243 11.1009 9.01814 11.4999C9.41708 11.8956 9.95623 12.1176 10.5181 12.1176C11.0801 12.1176 11.6192 11.8956 12.0181 11.4999L14.2781 9.28986C14.8398 8.73415 15.598 8.42244 16.3881 8.42244C17.1783 8.42244 17.9365 8.73415 18.4981 9.28986L20.8981 11.6899" stroke="#FFF5ED" stroke-width="1.5" stroke-linecap="round" stroke-linejoin="round"/>
<path d="M18.1484 15L16.1484 13" stroke="#FFF5ED" stroke-width="1.5" stroke-linecap="round" stroke-linejoin="round"/>
<path d="M15.1484 18L13.1484 16" stroke="#FFF5ED" stroke-width="1.5" stroke-linecap="round" stroke-linejoin="round"/>
</svg>
