<svg width="24" height="24" viewBox="0 0 24 24" fill="none" xmlns="http://www.w3.org/2000/svg">
<path d="M20.4201 4.57996C19.9184 4.07653 19.3223 3.67709 18.6659 3.40455C18.0095 3.132 17.3058 2.9917 16.5951 2.9917C15.8844 2.9917 15.1806 3.132 14.5243 3.40455C13.8679 3.67709 13.2718 4.07653 12.7701 4.57996L12.0001 5.35996L11.2301 4.57996C10.7284 4.07653 10.1323 3.67709 9.47591 3.40455C8.81953 3.132 8.1158 2.9917 7.40509 2.9917C6.69437 2.9917 5.99065 3.132 5.33427 3.40455C4.67789 3.67709 4.08176 4.07653 3.58009 4.57996C1.46009 6.69996 1.33009 10.28 4.00009 13L12.0001 21L20.0001 13C22.6701 10.28 22.5401 6.69996 20.4201 4.57996Z" fill="#FEE9D6" stroke="#E44412" stroke-width="1.5" stroke-miterlimit="10"/>
<path d="M11.9997 5.35986L8.8697 8.49986C8.47399 8.89881 8.25195 9.43795 8.25195 9.99986C8.25195 10.5618 8.47399 11.1009 8.8697 11.4999C9.26865 11.8956 9.80779 12.1176 10.3697 12.1176C10.9316 12.1176 11.4708 11.8956 11.8697 11.4999L14.1297 9.28986C14.6914 8.73415 15.4496 8.42244 16.2397 8.42244C17.0298 8.42244 17.788 8.73415 18.3497 9.28986L20.7497 11.6899" stroke="#E44412" stroke-width="1.5" stroke-linecap="round" stroke-linejoin="round"/>
<path d="M18 15L16 13" stroke="#E44412" stroke-width="1.5" stroke-linecap="round" stroke-linejoin="round"/>
<path d="M15 18L13 16" stroke="#E44412" stroke-width="1.5" stroke-linecap="round" stroke-linejoin="round"/>
</svg>
