<svg width="35" height="35" viewBox="0 0 35 35" fill="none" xmlns="http://www.w3.org/2000/svg">
<path d="M32.5705 23.7922C32.5716 23.7926 32.5725 23.7913 32.5718 23.7904C32.0941 23.2041 30.6968 23.1396 30.1172 23.1396C29.5979 23.1396 28.8091 23.1919 27.9933 23.4405C27.4618 23.6095 26.9914 23.8457 26.5578 24.1539C26.1536 24.4373 25.9724 24.8823 26.0973 25.2901C26.2149 25.6704 26.5627 25.9165 26.9865 25.9165C26.9917 25.9165 26.9969 25.9165 27.0023 25.9165C27.0539 25.9162 27.1063 25.9138 27.1563 25.9009C27.1585 25.9003 27.1607 25.8997 27.1629 25.8991V25.8991C27.2188 25.8873 27.236 25.9558 27.1822 25.9753C24.2905 27.0239 21.1843 27.5747 18.1505 27.5747C13.3172 27.5747 8.42762 26.2546 4.38072 23.8556C4.37582 23.8531 4.36848 23.8482 4.36358 23.8457C4.1872 23.7462 4.00102 23.6965 3.81239 23.6965C3.3935 23.6965 3.03339 23.9476 2.89866 24.3379C2.75902 24.7332 2.89131 25.1757 3.23182 25.469C7.20032 29.126 12.3863 31.1396 17.8296 31.1396C21.5531 31.1396 25.5657 30.0483 28.5641 28.2211C28.603 28.1985 28.6416 28.1758 28.68 28.1529C28.9692 27.9807 29.3374 28.2673 29.2114 28.5794C29.2038 28.5982 29.1961 28.6171 29.1884 28.6361C29.1871 28.6395 29.1865 28.6428 29.1849 28.646V28.646C29.1832 28.6495 29.1807 28.653 29.1794 28.6566C29.0569 28.978 29.0869 29.3064 29.2574 29.5635C29.4215 29.8071 29.6983 29.9513 29.9972 29.9513C30.2373 29.9513 30.4749 29.8643 30.688 29.6978C30.6954 29.6903 30.7052 29.6853 30.7125 29.6779C32.2191 28.3851 32.8144 26.1378 32.8437 24.942C32.8437 24.9346 32.8437 24.9296 32.8437 24.9221V24.7456C32.8437 24.4025 32.758 24.0744 32.6086 23.8482C32.5969 23.8293 32.5831 23.8126 32.5692 23.794C32.5685 23.7931 32.5694 23.7918 32.5705 23.7922V23.7922Z" fill="#410F09" stroke="#410F09" stroke-miterlimit="10"/>
<path d="M25.5509 10.1621C25.5631 8.29356 25.5777 6.36115 23.9956 4.87317C22.2453 3.26487 19.6612 3.13965 18.9104 3.13965H18.2765C18.2619 3.13965 18.2497 3.13965 18.2351 3.13965C14.4785 3.35818 11.9846 5.27586 11.3874 8.40406C11.2899 8.82148 11.4044 9.13086 11.5166 9.31747C11.6872 9.59984 11.9822 9.80364 12.3479 9.89204C12.3722 9.89695 12.3966 9.90186 12.421 9.90432L15.3805 10.2824C15.4512 10.2923 15.5243 10.2898 15.595 10.2775C16.1606 10.1744 16.5725 9.74717 16.6944 9.13086C16.9236 8.13887 17.7914 7.88842 18.3131 7.82949H18.4886C18.9421 7.82949 19.3833 8.02347 19.5954 8.31566C19.715 8.50508 19.7781 8.74295 19.811 9.00433C19.8756 9.51863 19.4474 9.94797 18.9318 10.0007C18.684 10.026 18.4325 10.0548 18.1815 10.0885C16.9455 10.2505 15.6535 10.4715 14.5492 10.997C12.1943 11.9693 10.8438 14.0343 10.8438 16.6714C10.8438 18.3608 11.3776 19.7702 12.3844 20.7474C13.3254 21.6584 14.6126 22.1396 16.1045 22.1396C16.9358 22.1396 17.6793 22.0488 18.4472 21.8524C18.4594 21.8499 18.474 21.845 18.4862 21.8401C19.0761 21.6532 19.6176 21.3853 20.1589 21.0038C20.6516 20.6566 21.341 20.7291 21.7648 21.1576C21.9435 21.3384 22.1569 21.5358 22.4232 21.7615C22.4817 21.8106 22.5475 21.8499 22.6182 21.8794C23.135 22.0856 23.6592 22.0292 24.0516 21.7296C24.059 21.7222 24.0687 21.7173 24.076 21.71C24.7342 21.1575 25.8264 20.2121 26.4139 19.6769C26.9014 19.2644 26.9819 18.5965 26.6162 17.9704C26.5991 17.9433 26.5821 17.9163 26.5626 17.8918L26.448 17.7445C25.9263 17.0815 25.5509 16.6002 25.5509 15.5027V10.6974C25.5509 10.5206 25.5509 10.3438 25.5509 10.1695V10.1621ZM19.3552 16.5683C19.3558 16.5683 19.3561 16.5689 19.3558 16.5694C19.3464 16.5837 19.3392 16.5982 19.3321 16.615C19.0943 17.0916 18.7035 17.4406 18.2425 17.591C18.1909 17.6078 18.1372 17.6166 18.0836 17.6249C18.0442 17.631 18.0071 17.6379 17.9718 17.6438C17.9328 17.6511 17.8719 17.6634 17.8499 17.6634C16.8188 17.6634 16.7066 16.5953 16.7066 16.1362C16.7066 14.9797 17.2454 14.3044 18.4521 13.9459C18.8 13.8649 19.206 13.8093 19.6651 13.779C19.757 13.773 19.8343 13.8464 19.8343 13.9386V13.9386C19.8367 14.989 19.8392 15.7451 19.3547 16.5673C19.3544 16.5677 19.3547 16.5683 19.3552 16.5683V16.5683Z" stroke="#F36020" stroke-width="1.5" stroke-miterlimit="10"/>
</svg>
