<svg width="43" height="38" viewBox="0 0 43 38" fill="none" xmlns="http://www.w3.org/2000/svg">
<path d="M40.6366 21.5242H7.36245C6.68765 21.5242 6.14062 22.0763 6.14062 22.7573V29.0226C6.14062 29.7036 6.68765 30.2557 7.36245 30.2557H40.6366C41.3114 30.2557 41.8584 29.7036 41.8584 29.0226V22.7573C41.8584 22.0763 41.3114 21.5242 40.6366 21.5242Z" stroke="#F9AC78" stroke-width="1.5" stroke-miterlimit="10"/>
<path d="M40.6366 11.1552H7.36245C6.68765 11.1552 6.14062 11.7073 6.14062 12.3883V18.6536C6.14062 19.3346 6.68765 19.8867 7.36245 19.8867H40.6366C41.3114 19.8867 41.8584 19.3346 41.8584 18.6536V12.3883C41.8584 11.7073 41.3114 11.1552 40.6366 11.1552Z" stroke="#F9AC78" stroke-width="1.5" stroke-miterlimit="10"/>
<path d="M40.6366 0.78334H7.36245C6.68765 0.78334 6.14062 1.33543 6.14062 2.01646V8.28171C6.14062 8.96274 6.68765 9.51483 7.36245 9.51483H40.6366C41.3114 9.51483 41.8584 8.96274 41.8584 8.28171V2.01646C41.8584 1.33543 41.3114 0.78334 40.6366 0.78334Z" stroke="#F9AC78" stroke-width="1.5" stroke-miterlimit="10"/>
<path d="M14.7969 15.5209H27.5625" stroke="black" stroke-width="2" stroke-miterlimit="10"/>
<path d="M25.9609 5.1974H38.7266" stroke="#F9AC78" stroke-width="2" stroke-miterlimit="10"/>
<g filter="url(#filter0_dddd_501_4119)">
<path d="M20.5365 28.3704C26.03 28.3704 30.4832 23.8759 30.4832 18.3318C30.4832 12.7876 26.03 8.29311 20.5365 8.29311C15.0431 8.29311 10.5898 12.7876 10.5898 18.3318C10.5898 23.8759 15.0431 28.3704 20.5365 28.3704Z" fill="#340B06"/>
<path d="M20.5365 28.3704C26.03 28.3704 30.4832 23.8759 30.4832 18.3318C30.4832 12.7876 26.03 8.29311 20.5365 8.29311C15.0431 8.29311 10.5898 12.7876 10.5898 18.3318C10.5898 23.8759 15.0431 28.3704 20.5365 28.3704Z" stroke="#E44412" stroke-width="2" stroke-miterlimit="10"/>
</g>
<path d="M26.8789 26.0636L36.2669 35.5384" stroke="#E44412" stroke-width="2" stroke-miterlimit="10"/>
<defs>
<filter id="filter0_dddd_501_4119" x="0.589844" y="6.29311" width="31.8926" height="31.0773" filterUnits="userSpaceOnUse" color-interpolation-filters="sRGB">
<feFlood flood-opacity="0" result="BackgroundImageFix"/>
<feColorMatrix in="SourceAlpha" type="matrix" values="0 0 0 0 0 0 0 0 0 0 0 0 0 0 0 0 0 0 127 0" result="hardAlpha"/>
<feOffset/>
<feGaussianBlur stdDeviation="0.5"/>
<feColorMatrix type="matrix" values="0 0 0 0 0.254902 0 0 0 0 0.0588235 0 0 0 0 0.0352941 0 0 0 0.2 0"/>
<feBlend mode="normal" in2="BackgroundImageFix" result="effect1_dropShadow_501_4119"/>
<feColorMatrix in="SourceAlpha" type="matrix" values="0 0 0 0 0 0 0 0 0 0 0 0 0 0 0 0 0 0 127 0" result="hardAlpha"/>
<feOffset dx="-1" dy="1"/>
<feGaussianBlur stdDeviation="1"/>
<feColorMatrix type="matrix" values="0 0 0 0 0.254902 0 0 0 0 0.0588235 0 0 0 0 0.0352941 0 0 0 0.17 0"/>
<feBlend mode="normal" in2="effect1_dropShadow_501_4119" result="effect2_dropShadow_501_4119"/>
<feColorMatrix in="SourceAlpha" type="matrix" values="0 0 0 0 0 0 0 0 0 0 0 0 0 0 0 0 0 0 127 0" result="hardAlpha"/>
<feOffset dx="-3" dy="3"/>
<feGaussianBlur stdDeviation="1.5"/>
<feColorMatrix type="matrix" values="0 0 0 0 0.254902 0 0 0 0 0.0588235 0 0 0 0 0.0352941 0 0 0 0.1 0"/>
<feBlend mode="normal" in2="effect2_dropShadow_501_4119" result="effect3_dropShadow_501_4119"/>
<feColorMatrix in="SourceAlpha" type="matrix" values="0 0 0 0 0 0 0 0 0 0 0 0 0 0 0 0 0 0 127 0" result="hardAlpha"/>
<feOffset dx="-6" dy="5"/>
<feGaussianBlur stdDeviation="1.5"/>
<feColorMatrix type="matrix" values="0 0 0 0 0.254902 0 0 0 0 0.0588235 0 0 0 0 0.0352941 0 0 0 0.03 0"/>
<feBlend mode="normal" in2="effect3_dropShadow_501_4119" result="effect4_dropShadow_501_4119"/>
<feBlend mode="normal" in="SourceGraphic" in2="effect4_dropShadow_501_4119" result="shape"/>
</filter>
</defs>
</svg>
