<svg width="36" height="38" viewBox="0 0 36 38" fill="none" xmlns="http://www.w3.org/2000/svg">
<path d="M29.7539 7.87393C31.2156 7.87393 32.4436 8.97947 32.5975 10.4392L34.8427 31.7473C35.0222 33.4384 33.6973 34.9154 31.9991 34.9154" stroke="#F9AC78" stroke-width="2" stroke-miterlimit="10"/>
<path d="M17.9707 2.62624C19.0335 1.78352 20.3783 1.2836 21.8371 1.2836C25.2876 1.2836 28.0827 4.08887 28.0827 7.54546V9.79368" stroke="#F9AC78" stroke-width="2" stroke-miterlimit="10"/>
<path d="M22.1326 9.95937C23.5943 9.95937 24.8223 11.0649 24.9761 12.5247L27.2213 33.8327C27.4008 35.5239 26.0759 37.0008 24.3778 37.0008H4.00002C2.30187 37.0008 0.979826 35.5267 1.15648 33.8327L3.40168 12.5247C3.55554 11.0678 4.78071 9.95937 6.24522 9.95937H20.4601" fill="#340B06"/>
<path d="M22.1326 9.95937C23.5943 9.95937 24.8223 11.0649 24.9761 12.5247L27.2213 33.8327C27.4008 35.5239 26.0759 37.0008 24.3778 37.0008H4.00002C2.30187 37.0008 0.979826 35.5267 1.15648 33.8327L3.40168 12.5247C3.55554 11.0678 4.78071 9.95937 6.24522 9.95937H20.4601" stroke="#E44412" stroke-width="2" stroke-miterlimit="10"/>
<path d="M7.96875 11.8821V9.63384C7.96875 6.17439 10.7667 3.37198 14.2143 3.37198C17.6619 3.37198 20.4598 6.17725 20.4598 9.63384V11.8821" stroke="#E44412" stroke-width="2" stroke-miterlimit="10"/>
</svg>
