<svg width="35" height="36" viewBox="0 0 35 36" fill="none" xmlns="http://www.w3.org/2000/svg">
<path d="M9.48549 10.0836C9.09897 9.92207 8.6198 9.78176 8.04533 9.66528C8.02415 9.65999 8.00032 9.65734 7.97385 9.65204C7.94737 9.64675 7.92355 9.6441 7.90237 9.63881C7.88384 9.63351 7.86795 9.63086 7.85472 9.62822C7.83883 9.62822 7.82295 9.62292 7.80442 9.61763C7.31201 9.52232 6.92814 9.42967 6.65017 9.33966C6.3722 9.24965 6.14188 9.11198 5.95656 8.92402C5.77125 8.73606 5.67859 8.47927 5.67859 8.15364V8.14835C5.67859 7.67447 5.85861 7.30649 6.21865 7.04705C6.57869 6.78761 7.08169 6.65788 7.73294 6.65788C8.09563 6.65788 8.45567 6.72407 8.81571 6.85644C9.17575 6.9888 9.53579 7.18736 9.89848 7.45474L10.6556 6.3958C10.3459 6.17342 10.0308 5.99075 9.71051 5.8425C9.39018 5.69689 9.06456 5.58571 8.73629 5.51158C8.40801 5.43745 8.0718 5.40039 7.73294 5.40039C7.02345 5.40039 6.41455 5.50893 5.90891 5.72602C5.40326 5.9431 5.0194 6.26078 4.75466 6.67642C4.48993 7.09205 4.36021 7.59505 4.36021 8.18276V8.18806C4.36021 8.86048 4.50052 9.37672 4.78643 9.73941C5.0697 10.1021 5.41121 10.3536 5.80831 10.4913C6.20806 10.6289 6.7243 10.7507 7.36231 10.8619L7.46026 10.8804C7.46026 10.8804 7.48673 10.8857 7.50262 10.8857C7.5185 10.8857 7.53174 10.8857 7.54498 10.891C7.97649 10.9704 8.32859 11.0551 8.60127 11.1478C8.87395 11.2405 9.09633 11.3861 9.2684 11.5793C9.44048 11.7726 9.52784 12.0373 9.52784 12.3682V12.3735C9.52784 12.8395 9.33723 13.1995 8.95866 13.4563C8.58009 13.7131 8.04533 13.8402 7.35701 13.8402C6.84607 13.8402 6.37484 13.7607 5.93803 13.6045C5.50122 13.4484 5.10411 13.2127 4.74143 12.8977L3.91016 13.9169C4.2199 14.179 4.55082 14.3961 4.90821 14.5708C5.2656 14.7456 5.64682 14.8753 6.05451 14.9626C6.46485 15.05 6.89902 15.0924 7.35437 15.0924C8.09033 15.0924 8.7204 14.9838 9.23928 14.7694C9.76081 14.5549 10.1579 14.2399 10.4332 13.8269C10.7086 13.4139 10.8462 12.9189 10.8462 12.3391V12.3259C10.8462 11.7037 10.7165 11.2113 10.4571 10.8513C10.1976 10.4913 9.87465 10.2318 9.49078 10.0703L9.48549 10.0836Z" fill="#E44412"/>
<path d="M16.6956 13.7369H13.9397V10.9201H17.9928V9.65203H13.9397V6.76906H18.7129V5.50098H13.9397H13.2514H12.6055V15.005H13.2514H13.9397H15.0013L16.6956 13.7369Z" fill="#E44412"/>
<path d="M28.6891 5.50098V15.005H27.3893V8.45543L25.1125 13.6866H24.734C24.5063 13.5622 24.2733 13.4483 24.0324 13.3451L21.9092 8.5825V12.7521C21.5333 12.6991 21.1494 12.6727 20.7603 12.6727C20.71 12.6727 20.6597 12.6727 20.6094 12.6753V5.50098H21.8563L24.6492 11.7752L27.4396 5.50098H28.6891Z" fill="#E44412"/>
<path d="M26.0352 27.3284L33.8475 35.1407" stroke="#F9AC78" stroke-width="1.5" stroke-miterlimit="10"/>
<path d="M30.1315 1.14075H2.34486C1.60211 1.14075 1 1.74286 1 2.4856V19.8284C1 20.5712 1.60211 21.1733 2.34486 21.1733H30.1315C30.8742 21.1733 31.4764 20.5712 31.4764 19.8284V2.4856C31.4764 1.74286 30.8742 1.14075 30.1315 1.14075Z" stroke="#F9AC78" stroke-width="2" stroke-miterlimit="10"/>
<path d="M20.7587 29.2292C25.3307 29.2292 29.037 25.5229 29.037 20.9509C29.037 16.3789 25.3307 12.6726 20.7587 12.6726C16.1868 12.6726 12.4805 16.3789 12.4805 20.9509C12.4805 25.5229 16.1868 29.2292 20.7587 29.2292Z" fill="#340B06" stroke="#F9AC78" stroke-width="1.5" stroke-miterlimit="10"/>
</svg>
