<svg width="43" height="39" viewBox="0 0 43 39" fill="none" xmlns="http://www.w3.org/2000/svg">
<g filter="url(#filter0_dddd_1161_1552)">
<path d="M27.9219 10.0075C27.9219 7.4532 27.3557 5.52187 26.1314 4.18376C24.907 2.84565 22.434 2.17388 20.1505 2.17388C17.8495 2.16733 15.5884 2.77515 13.6008 3.93456C13.5396 3.97115 13.4891 4.02321 13.4544 4.08549C13.4197 4.14778 13.402 4.2181 13.4031 4.2894L13.5764 7.09835C13.5865 7.16407 13.6097 7.22706 13.6448 7.28355C13.6798 7.34004 13.726 7.38886 13.7804 7.42707C13.8348 7.46528 13.8963 7.49209 13.9614 7.50589C14.0264 7.51969 14.0936 7.5202 14.1588 7.50737C14.2483 7.49055 14.3322 7.45142 14.4026 7.39361C17.2034 5.66273 20.5676 5.34039 22.2796 6.2126C22.7504 6.48264 23.1385 6.87616 23.402 7.35067C23.6655 7.82519 23.7944 8.36266 23.7748 8.90508V9.32493H19.0968C17.0896 9.32493 10.9327 10.0725 10.9327 15.7338V15.7934C10.8837 16.6545 11.0387 17.515 11.3851 18.3048C11.7315 19.0946 12.2596 19.7915 12.9263 20.3386C14.3846 21.3623 16.145 21.8651 17.9239 21.7661H27.3855C27.4581 21.7662 27.5299 21.7516 27.5967 21.7234C27.6635 21.6952 27.7239 21.6538 27.7745 21.6018C27.825 21.5497 27.8645 21.4881 27.8908 21.4204C27.917 21.3528 27.9294 21.2806 27.9273 21.2081L27.912 9.43609L27.9219 10.0075ZM23.7748 18.2908H18.1921C17.4769 18.2737 16.7848 18.0341 16.212 17.6055C15.9179 17.3976 15.6787 17.1213 15.5149 16.8005C15.3512 16.4796 15.2679 16.1238 15.2721 15.7636C15.2721 14.7532 15.952 12.7379 19.3596 12.7379H23.7748V18.2908Z" fill="#340B06"/>
<path d="M27.9219 10.0075C27.9219 7.4532 27.3557 5.52187 26.1314 4.18376C24.907 2.84565 22.434 2.17388 20.1505 2.17388C17.8495 2.16733 15.5884 2.77515 13.6008 3.93456C13.5396 3.97115 13.4891 4.02321 13.4544 4.08549C13.4197 4.14778 13.402 4.2181 13.4031 4.2894L13.5764 7.09835C13.5865 7.16407 13.6097 7.22706 13.6448 7.28355C13.6798 7.34004 13.726 7.38886 13.7804 7.42707C13.8348 7.46528 13.8963 7.49209 13.9614 7.50589C14.0264 7.51969 14.0936 7.5202 14.1588 7.50737C14.2483 7.49055 14.3322 7.45142 14.4026 7.39361C17.2034 5.66273 20.5676 5.34039 22.2796 6.2126C22.7504 6.48264 23.1385 6.87616 23.402 7.35067C23.6655 7.82519 23.7944 8.36266 23.7748 8.90508V9.32493H19.0968C17.0896 9.32493 10.9327 10.0725 10.9327 15.7338V15.7934C10.8837 16.6545 11.0387 17.515 11.3851 18.3048C11.7315 19.0946 12.2596 19.7915 12.9263 20.3386C14.3846 21.3623 16.145 21.8651 17.9239 21.7661H27.3855C27.4581 21.7662 27.5299 21.7516 27.5967 21.7234C27.6635 21.6952 27.7239 21.6538 27.7745 21.6018C27.825 21.5497 27.8645 21.4881 27.8908 21.4204C27.917 21.3528 27.9294 21.2806 27.9273 21.2081L27.912 9.43609L27.9219 10.0075ZM23.7748 18.2908H18.1921C17.4769 18.2737 16.7848 18.0341 16.212 17.6055C15.9179 17.3976 15.6787 17.1213 15.5149 16.8005C15.3512 16.4796 15.2679 16.1238 15.2721 15.7636C15.2721 14.7532 15.952 12.7379 19.3596 12.7379H23.7748V18.2908Z" stroke="#E44412" stroke-width="2" stroke-miterlimit="10"/>
</g>
<path d="M8 13.7048V32.0159C8 32.8377 8.32648 33.6259 8.90761 34.207C9.48875 34.7882 10.2769 35.1147 11.0988 35.1147H29.2121" stroke="#F9AC78" stroke-width="1.5" stroke-miterlimit="10"/>
<path d="M31.4473 10.6064H37.4457C37.8526 10.6064 38.2556 10.6866 38.6315 10.8423C39.0075 10.9981 39.3491 11.2263 39.6368 11.5141C39.9246 11.8018 40.1528 12.1434 40.3086 12.5194C40.4643 12.8953 40.5445 13.2983 40.5445 13.7052V26.7938" stroke="#F9AC78" stroke-width="1.5" stroke-miterlimit="10"/>
<path d="M34.9643 38.1077C38.8494 38.1077 41.9988 34.9582 41.9988 31.0732C41.9988 27.1881 38.8494 24.0386 34.9643 24.0386C31.0792 24.0386 27.9297 27.1881 27.9297 31.0732C27.9297 34.9582 31.0792 38.1077 34.9643 38.1077Z" stroke="#F9AC78" stroke-width="1.5" stroke-miterlimit="10"/>
<path d="M34.9648 27.162V34.9875" stroke="#F9AC78" stroke-width="1.5" stroke-miterlimit="10"/>
<path d="M38.8802 31.0734H31.0547" stroke="#F9AC78" stroke-width="1.5" stroke-miterlimit="10"/>
<defs>
<filter id="filter0_dddd_1161_1552" x="0.923828" y="0.173828" width="29.0039" height="30.6046" filterUnits="userSpaceOnUse" color-interpolation-filters="sRGB">
<feFlood flood-opacity="0" result="BackgroundImageFix"/>
<feColorMatrix in="SourceAlpha" type="matrix" values="0 0 0 0 0 0 0 0 0 0 0 0 0 0 0 0 0 0 127 0" result="hardAlpha"/>
<feOffset/>
<feGaussianBlur stdDeviation="0.5"/>
<feColorMatrix type="matrix" values="0 0 0 0 0.254902 0 0 0 0 0.0588235 0 0 0 0 0.0352941 0 0 0 0.2 0"/>
<feBlend mode="normal" in2="BackgroundImageFix" result="effect1_dropShadow_1161_1552"/>
<feColorMatrix in="SourceAlpha" type="matrix" values="0 0 0 0 0 0 0 0 0 0 0 0 0 0 0 0 0 0 127 0" result="hardAlpha"/>
<feOffset dx="-1" dy="1"/>
<feGaussianBlur stdDeviation="1"/>
<feColorMatrix type="matrix" values="0 0 0 0 0.254902 0 0 0 0 0.0588235 0 0 0 0 0.0352941 0 0 0 0.17 0"/>
<feBlend mode="normal" in2="effect1_dropShadow_1161_1552" result="effect2_dropShadow_1161_1552"/>
<feColorMatrix in="SourceAlpha" type="matrix" values="0 0 0 0 0 0 0 0 0 0 0 0 0 0 0 0 0 0 127 0" result="hardAlpha"/>
<feOffset dx="-3" dy="3"/>
<feGaussianBlur stdDeviation="1.5"/>
<feColorMatrix type="matrix" values="0 0 0 0 0.254902 0 0 0 0 0.0588235 0 0 0 0 0.0352941 0 0 0 0.1 0"/>
<feBlend mode="normal" in2="effect2_dropShadow_1161_1552" result="effect3_dropShadow_1161_1552"/>
<feColorMatrix in="SourceAlpha" type="matrix" values="0 0 0 0 0 0 0 0 0 0 0 0 0 0 0 0 0 0 127 0" result="hardAlpha"/>
<feOffset dx="-6" dy="5"/>
<feGaussianBlur stdDeviation="1.5"/>
<feColorMatrix type="matrix" values="0 0 0 0 0.254902 0 0 0 0 0.0588235 0 0 0 0 0.0352941 0 0 0 0.03 0"/>
<feBlend mode="normal" in2="effect3_dropShadow_1161_1552" result="effect4_dropShadow_1161_1552"/>
<feBlend mode="normal" in="SourceGraphic" in2="effect4_dropShadow_1161_1552" result="shape"/>
</filter>
</defs>
</svg>
