<svg width="36" height="38" viewBox="0 0 36 38" fill="none" xmlns="http://www.w3.org/2000/svg">
<path d="M29.7539 7.8739C31.2156 7.8739 32.4436 8.97944 32.5975 10.4392L34.8427 31.7473C35.0222 33.4384 33.6973 34.9153 31.9991 34.9153" stroke="#410F09" stroke-width="2" stroke-miterlimit="10"/>
<path d="M17.9707 2.62621C19.0335 1.78349 20.3783 1.28357 21.8371 1.28357C25.2876 1.28357 28.0827 4.08884 28.0827 7.54543V9.79365" stroke="#410F09" stroke-width="2" stroke-miterlimit="10"/>
<path d="M22.1326 9.95935C23.5943 9.95935 24.8223 11.0649 24.9761 12.5247L27.2213 33.8327C27.4008 35.5239 26.0759 37.0008 24.3778 37.0008H4.00002C2.30187 37.0008 0.979826 35.5267 1.15648 33.8327L3.40168 12.5247C3.55554 11.0677 4.78071 9.95935 6.24522 9.95935H20.4601" fill="#FFF5ED"/>
<path d="M22.1326 9.95935C23.5943 9.95935 24.8223 11.0649 24.9761 12.5247L27.2213 33.8327C27.4008 35.5239 26.0759 37.0008 24.3778 37.0008H4.00002C2.30187 37.0008 0.979826 35.5267 1.15648 33.8327L3.40168 12.5247C3.55554 11.0677 4.78071 9.95935 6.24522 9.95935H20.4601" stroke="#E44412" stroke-width="2" stroke-miterlimit="10"/>
<path d="M7.96875 11.882V9.63381C7.96875 6.17436 10.7667 3.37195 14.2143 3.37195C17.6619 3.37195 20.4598 6.17722 20.4598 9.63381V11.882" stroke="#E44412" stroke-width="2" stroke-miterlimit="10"/>
</svg>
