<svg width="34" height="35" viewBox="0 0 34 35" fill="none" xmlns="http://www.w3.org/2000/svg">
<path d="M14.58 11.0819V13.4778H17.9165C18.023 13.4778 18.1228 13.5231 18.1953 13.6025C18.2633 13.6818 18.2996 13.7861 18.2882 13.8926L17.8462 17.7119C17.8258 17.9001 17.6672 18.0406 17.479 18.0406H14.5822V24.6253C14.3329 24.6434 14.0813 24.6525 13.8274 24.6525C12.3156 24.6525 10.874 24.3465 9.56609 23.7889V17.993H7.04329C6.83929 17.993 6.67383 17.8275 6.67383 17.6213V13.8495C6.67383 13.6455 6.83929 13.4801 7.04329 13.4801H9.69303V10.6785C9.64089 10.3747 9.41876 8.62488 11.0077 7.16515C12.438 5.84822 14.2536 5.74622 14.7749 5.74622C14.8452 5.74622 14.8928 5.74848 14.9132 5.74848H17.921C18.125 5.74848 18.2928 5.91395 18.2928 6.11795V9.62448C18.2928 9.82848 18.125 9.99622 17.921 9.99622H15.7405C14.9744 9.99622 14.5845 10.3611 14.5845 11.0819H14.58Z" stroke="#E44412" stroke-width="1.5" stroke-miterlimit="10"/>
<path d="M24.7479 13.7295C24.7479 19.5095 20.2599 24.2377 14.5819 24.6231C14.3325 24.6412 14.0809 24.6503 13.8271 24.6503C12.3152 24.6503 10.8736 24.3443 9.56572 23.7867C5.65118 22.1275 2.90625 18.2492 2.90625 13.7272C2.90625 7.6956 7.79545 2.8064 13.8271 2.8064C19.8587 2.8064 24.7479 7.6956 24.7479 13.7272V13.7295Z" stroke="#F9AC78" stroke-width="2" stroke-miterlimit="10"/>
<path d="M20.7871 22.1433L31.0959 32.4521" stroke="#F9AC78" stroke-width="2" stroke-miterlimit="10"/>
</svg>
