<svg width="38" height="38" viewBox="0 0 38 38" fill="none" xmlns="http://www.w3.org/2000/svg">
<path d="M26.8979 6.50208H2.77514C1.87566 6.50208 1.14648 7.2347 1.14648 8.13844V32.3754C1.14648 33.2792 1.87566 34.0118 2.77514 34.0118H26.8979C27.7974 34.0118 28.5266 33.2792 28.5266 32.3754V8.13844C28.5266 7.2347 27.7974 6.50208 26.8979 6.50208Z" fill="#340B06" stroke="#E44412" stroke-width="2" stroke-miterlimit="10"/>
<path d="M23.5412 34.0118H2.7342C1.85701 34.0118 1.14648 33.295 1.14648 32.4166V8.09731C1.14648 7.2189 1.85701 6.50208 2.7342 6.50208H23.9944" stroke="#E44412" stroke-miterlimit="10"/>
<path d="M34.5117 31.964H26.8538C25.5603 31.964 24.5117 33.0175 24.5117 34.3172V34.6433C24.5117 35.9429 25.5603 36.9965 26.8538 36.9965H34.5117C35.8052 36.9965 36.8538 35.9429 36.8538 34.6433V34.3172C36.8538 33.0175 35.8052 31.964 34.5117 31.964Z" stroke="#F9AC78" stroke-width="2" stroke-miterlimit="10"/>
<path d="M27.2188 35.9801C28.044 35.9801 28.7129 35.308 28.7129 34.4789C28.7129 33.6498 28.044 32.9777 27.2188 32.9777C26.3936 32.9777 25.7246 33.6498 25.7246 34.4789C25.7246 35.308 26.3936 35.9801 27.2188 35.9801Z" fill="#F9AC78" stroke="#F9AC78" stroke-width="2" stroke-miterlimit="10"/>
<path d="M12.2793 18.2754L28.7557 1.72099C29.3305 1.14349 30.265 1.14349 30.8398 1.72099L33.5711 4.46517C34.1458 5.04267 34.1458 5.98164 33.5711 6.55914L17.0947 23.1135L12.2814 18.2775L12.2793 18.2754Z" stroke="#F9AC78" stroke-width="2" stroke-linecap="round" stroke-linejoin="round"/>
<path d="M10.3398 25.0604L12.2814 18.274L17.0942 23.1097L10.3398 25.0604Z" stroke="#F9AC78" stroke-width="2" stroke-linecap="round" stroke-linejoin="round"/>
</svg>
