<svg width="37" height="38" viewBox="0 0 37 38" fill="none" xmlns="http://www.w3.org/2000/svg">
<path d="M34.5537 7.2594H12.4858C11.6868 7.2594 11.0391 7.90711 11.0391 8.7061V22.2191C11.0391 23.0181 11.6868 23.6658 12.4858 23.6658H34.5537C35.3527 23.6658 36.0004 23.0181 36.0004 22.2191V8.7061C36.0004 7.90711 35.3527 7.2594 34.5537 7.2594Z" stroke="#410F09" stroke-width="1.5" stroke-miterlimit="10"/>
<path d="M11.0386 17.4064H6.69282C6.50212 17.4064 6.3133 17.3687 6.13721 17.2955C5.96113 17.2223 5.80127 17.1149 5.66682 16.9797C5.53237 16.8444 5.42598 16.6839 5.35378 16.5074C5.28158 16.3309 5.24499 16.1419 5.24612 15.9512V2.44671C5.24612 2.06302 5.39854 1.69504 5.66985 1.42373C5.94116 1.15242 6.30913 1 6.69282 1H24.0647C24.2548 0.999628 24.4431 1.03679 24.6187 1.10936C24.7944 1.18193 24.9541 1.28848 25.0885 1.4229C25.2229 1.55731 25.3294 1.71694 25.402 1.89263C25.4746 2.06833 25.5118 2.25662 25.5114 2.44671V7.25956" stroke="#410F09" stroke-width="1.5" stroke-miterlimit="10"/>
<path d="M14.2168 20.072L21.476 12.8128L26.2774 17.6114L33.2062 10.6826" stroke="#410F09" stroke-width="1.5" stroke-miterlimit="10"/>
<path d="M17.4375 27.8069L26.9123 37.2817" stroke="#E44412" stroke-width="2" stroke-miterlimit="10"/>
<path d="M11.0386 30.1132C16.5828 30.1132 21.0773 25.6187 21.0773 20.0745C21.0773 14.5303 16.5828 10.0359 11.0386 10.0359C5.49446 10.0359 1 14.5303 1 20.0745C1 25.6187 5.49446 30.1132 11.0386 30.1132Z" fill="#FFF5ED" stroke="#E44412" stroke-width="2" stroke-miterlimit="10"/>
</svg>
