<svg width="37" height="38" viewBox="0 0 37 38" fill="none" xmlns="http://www.w3.org/2000/svg">
<path d="M3.80444 7.08054C5.2767 7.08054 6.4702 5.89373 6.4702 4.42973C6.4702 2.96574 5.2767 1.77893 3.80444 1.77893C2.33218 1.77893 1.13867 2.96574 1.13867 4.42973C1.13867 5.89373 2.33218 7.08054 3.80444 7.08054Z" stroke="#410F09" stroke-width="2" stroke-miterlimit="10"/>
<path d="M33.1931 17.952C34.6654 17.952 35.8589 16.7652 35.8589 15.3012C35.8589 13.8372 34.6654 12.6504 33.1931 12.6504C31.7208 12.6504 30.5273 13.8372 30.5273 15.3012C30.5273 16.7652 31.7208 17.952 33.1931 17.952Z" stroke="#410F09" stroke-width="2" stroke-miterlimit="10"/>
<path d="M26.7356 6.8315C28.0696 6.8315 29.151 5.75619 29.151 4.42972C29.151 3.10326 28.0696 2.02795 26.7356 2.02795C25.4017 2.02795 24.3203 3.10326 24.3203 4.42972C24.3203 5.75619 25.4017 6.8315 26.7356 6.8315Z" stroke="#410F09" stroke-width="2" stroke-miterlimit="10"/>
<path d="M11.052 23.0766C12.386 23.0766 13.4674 22.0013 13.4674 20.6748C13.4674 19.3484 12.386 18.2731 11.052 18.2731C9.7181 18.2731 8.63672 19.3484 8.63672 20.6748C8.63672 22.0013 9.7181 23.0766 11.052 23.0766Z" stroke="#410F09" stroke-width="2" stroke-miterlimit="10"/>
<path d="M15.1028 30.9877C16.4368 30.9877 17.5182 29.9124 17.5182 28.586C17.5182 27.2595 16.4368 26.1842 15.1028 26.1842C13.7689 26.1842 12.6875 27.2595 12.6875 28.586C12.6875 29.9124 13.7689 30.9877 15.1028 30.9877Z" stroke="#410F09" stroke-width="2" stroke-miterlimit="10"/>
<path d="M6.47266 4.42981H24.3177" stroke="#410F09" stroke-width="2" stroke-miterlimit="10"/>
<path d="M6.16992 5.65552L30.6933 14.3827" stroke="#410F09" stroke-width="2" stroke-miterlimit="10"/>
<path d="M5.61719 6.37512L26.8654 27.5013" stroke="#410F09" stroke-width="2" stroke-miterlimit="10"/>
<path d="M12.7012 18.9235L25.3204 6.37512" stroke="#410F09" stroke-width="2" stroke-miterlimit="10"/>
<path d="M17.5195 28.5856H25.9398" stroke="#410F09" stroke-width="2" stroke-miterlimit="10"/>
<path d="M30.3263 36.5022C33.1925 36.5022 35.516 34.1918 35.516 31.3418C35.516 28.4917 33.1925 26.1813 30.3263 26.1813C27.4602 26.1813 25.1367 28.4917 25.1367 31.3418C25.1367 34.1918 27.4602 36.5022 30.3263 36.5022Z" fill="#FFF5ED" stroke="#E44412" stroke-width="2" stroke-miterlimit="10"/>
<path d="M32.4369 29.8945L29.5235 32.7916L28.2129 31.4911" stroke="#E44412" stroke-miterlimit="10"/>
</svg>
