<svg width="37" height="38" viewBox="0 0 37 38" fill="none" xmlns="http://www.w3.org/2000/svg">
<path d="M8.88678 10.4418C11.4088 10.4418 13.4533 8.38918 13.4533 5.85718C13.4533 3.32518 11.4088 1.27258 8.88678 1.27258C6.36479 1.27258 4.32031 3.32518 4.32031 5.85718C4.32031 8.38918 6.36479 10.4418 8.88678 10.4418Z" stroke="#410F09" stroke-width="2" stroke-miterlimit="10"/>
<path d="M10.1746 25.7413H3.14525C2.03314 25.7413 1.13086 24.838 1.13086 23.7215V19.869C1.13086 15.5688 4.60358 12.0823 8.88678 12.0823C11.0297 12.0823 12.9706 12.9513 14.3713 14.3627C14.4893 14.4839 14.6047 14.6076 14.7122 14.734C15.3339 15.4397 15.8296 16.2613 16.1627 17.1619" stroke="#410F09" stroke-width="2" stroke-miterlimit="10"/>
<path d="M33.6545 19.4767H15.2469C14.0243 19.4767 13.0332 20.4717 13.0332 21.6992V34.7868C13.0332 36.0142 14.0243 37.0093 15.2469 37.0093H33.6545C34.8771 37.0093 35.8682 36.0142 35.8682 34.7868V21.6992C35.8682 20.4717 34.8771 19.4767 33.6545 19.4767Z" fill="#FFF5ED" stroke="#E44412" stroke-width="2" stroke-miterlimit="10"/>
<path d="M20.9103 15.2002H27.4492C28.7685 15.2002 29.8413 16.2772 29.8413 17.6018V19.4767H18.5156V17.6018C18.5156 16.2772 19.5884 15.2002 20.9077 15.2002H20.9103Z" stroke="#E44412" stroke-width="2" stroke-miterlimit="10"/>
</svg>
