<svg width="35" height="35" viewBox="0 0 35 35" fill="none" xmlns="http://www.w3.org/2000/svg">
<path d="M14.8706 2.65222C11.7336 2.65222 11.3414 2.66582 10.1106 2.72249C8.88209 2.77916 8.04342 2.97409 7.30902 3.25969C6.53835 3.54982 5.84022 4.00315 5.26222 4.59022C4.67515 5.16822 4.21955 5.86635 3.93169 6.63702C3.64609 7.37142 3.45115 8.21009 3.39449 9.43862C3.33782 10.6717 3.32422 11.0638 3.32422 14.1986C3.32422 17.3334 3.33782 17.7278 3.39449 18.9586C3.45115 20.1872 3.64609 21.0258 3.93169 21.7602C4.22182 22.5309 4.67515 23.229 5.26222 23.807C5.84022 24.3941 6.53835 24.8497 7.30902 25.1376C8.04342 25.4232 8.88209 25.6181 10.1106 25.6748C11.3437 25.7292 11.7358 25.745 14.8706 25.745C18.0054 25.745 18.3998 25.7314 19.6306 25.6748C20.8592 25.6181 21.6978 25.4232 22.4322 25.1376C23.2029 24.8474 23.901 24.3941 24.479 23.807C25.0661 23.229 25.5217 22.5309 25.8096 21.7602C26.0952 21.0258 26.2901 20.1872 26.3468 18.9586C26.4012 17.7256 26.417 17.3334 26.417 14.1986C26.417 11.0638 26.4034 10.6694 26.3468 9.43862C26.2901 8.21009 26.0952 7.37142 25.8096 6.63702C25.5194 5.86635 25.0661 5.16822 24.479 4.59022C23.901 4.00315 23.2029 3.54756 22.4322 3.25969C21.6978 2.97409 20.8592 2.77916 19.6306 2.72249C18.3976 2.66809 18.0054 2.65222 14.8706 2.65222ZM14.8706 8.26902C11.5953 8.26902 8.94102 10.9233 8.94102 14.1986C8.94102 17.474 11.5953 20.1282 14.8706 20.1282C18.146 20.1282 20.8002 17.474 20.8002 14.1986C20.8002 10.9233 18.146 8.26902 14.8706 8.26902ZM22.4209 8.03556C22.4209 8.80169 21.7998 9.42049 21.036 9.42049C20.2721 9.42049 19.651 8.79942 19.651 8.03556C19.651 7.27169 20.2721 6.65062 21.036 6.65062C21.7998 6.65062 22.4209 7.27169 22.4209 8.03556Z" stroke="#F36020" stroke-width="1.5" stroke-miterlimit="10"/>
<path d="M25.8924 32.366C29.822 32.366 33.0075 29.1805 33.0075 25.2509C33.0075 21.3214 29.822 18.1359 25.8924 18.1359C21.9629 18.1359 18.7773 21.3214 18.7773 25.2509C18.7773 29.1805 21.9629 32.366 25.8924 32.366Z" fill="#410F09" stroke="#F9AC78" stroke-width="1.5" stroke-miterlimit="10"/>
<path d="M28.9398 23.1497L24.7397 27.3521L22.8516 25.4639" stroke="#F9AC78" stroke-width="1.5" stroke-miterlimit="10"/>
</svg>
