<svg width="34" height="36" viewBox="0 0 34 36" fill="none" xmlns="http://www.w3.org/2000/svg">
<path d="M25.104 7.63965C26.5604 7.63965 27.7825 8.74482 27.9353 10.2005L30.1733 31.4776C30.3515 33.1686 29.0326 34.6396 27.342 34.6396H7.03688C5.34626 34.6396 4.02738 33.1661 4.20561 31.4776L6.44363 10.2005C6.5964 8.74482 7.81853 7.63965 9.2749 7.63965H23.4389" stroke="#410F09" stroke-width="1.5" stroke-miterlimit="10"/>
<path d="M11.1895 9.63965V7.5259C11.1895 4.27582 13.8766 1.63965 17.1895 1.63965C20.5023 1.63965 23.1895 4.27582 23.1895 7.5259V9.63965" stroke="#410F09" stroke-width="1.5" stroke-miterlimit="10"/>
<path d="M24.7554 26.8241L23.4869 25.8459C23.1738 25.6074 22.717 25.6468 22.4573 25.9357C20.1731 28.5791 16.0499 28.973 13.2485 26.8176C10.4472 24.6621 10.0298 20.7713 12.314 18.1278C14.3987 15.7163 18.0628 15.1451 20.8595 16.7973L16.8592 20.5568H14.0926C13.6845 20.5568 13.3552 20.8676 13.3552 21.2527V22.7254C13.3552 23.1106 13.6845 23.4213 14.0926 23.4213H17.8448C18.0396 23.4213 18.2274 23.3491 18.3642 23.22L24.6371 17.3685C25.0244 17.0118 25.0476 16.4297 24.6882 16.0445C21.2027 12.3178 15.1756 11.9633 11.2264 15.2524C7.2771 18.5414 6.90142 24.2288 10.3869 27.9555C13.8723 31.6822 19.8994 32.0367 23.8487 28.7476C24.2012 28.4544 24.5305 28.1349 24.8343 27.7957C25.0893 27.5003 25.0453 27.0648 24.7345 26.8219" stroke="#E44412" stroke-width="1.5" stroke-miterlimit="10"/>
</svg>
