<svg width="34" height="35" viewBox="0 0 34 35" fill="none" xmlns="http://www.w3.org/2000/svg">
<path d="M31.7228 23.7922C31.7239 23.7926 31.7248 23.7913 31.7241 23.7904C31.2465 23.2041 29.8491 23.1396 29.2696 23.1396C28.7502 23.1396 27.9614 23.1919 27.1457 23.4405C26.6141 23.6095 26.1438 23.8457 25.7102 24.1539C25.306 24.4373 25.1247 24.8823 25.2496 25.2901C25.3672 25.6704 25.7151 25.9165 26.1389 25.9165C26.144 25.9165 26.1493 25.9165 26.1546 25.9165C26.2062 25.9162 26.2586 25.9138 26.3086 25.9009C26.3108 25.9003 26.3131 25.8997 26.3152 25.8991V25.8991C26.3712 25.8873 26.3883 25.9558 26.3346 25.9753C23.4428 27.0239 20.3366 27.5747 17.3028 27.5747C12.4696 27.5747 7.57997 26.2546 3.53307 23.8556C3.52817 23.8531 3.52082 23.8482 3.51592 23.8457C3.33954 23.7462 3.15336 23.6965 2.96474 23.6965C2.54584 23.6965 2.18573 23.9476 2.051 24.3379C1.91137 24.7332 2.04365 25.1757 2.38416 25.469C6.35267 29.126 11.5387 31.1396 16.9819 31.1396C20.7054 31.1396 24.718 30.0483 27.7165 28.2211C27.7553 28.1985 27.7939 28.1758 27.8323 28.1529C28.1215 27.9807 28.4897 28.2673 28.3637 28.5794C28.3561 28.5982 28.3485 28.6171 28.3408 28.6361C28.3394 28.6395 28.3388 28.6428 28.3372 28.646V28.646C28.3356 28.6495 28.3331 28.653 28.3317 28.6566C28.2092 28.978 28.2392 29.3064 28.4097 29.5635C28.5739 29.8071 28.8507 29.9513 29.1495 29.9513C29.3896 29.9513 29.6272 29.8643 29.8404 29.6978C29.8477 29.6903 29.8575 29.6853 29.8649 29.6779C31.3714 28.3851 31.9667 26.1378 31.9961 24.942C31.9961 24.9346 31.9961 24.9296 31.9961 24.9221V24.7456C31.9961 24.4025 31.9104 24.0744 31.7609 23.8482C31.7493 23.8293 31.7355 23.8126 31.7215 23.794C31.7208 23.7931 31.7217 23.7918 31.7228 23.7922V23.7922Z" fill="#F9AC78" stroke="#F9AC78" stroke-miterlimit="10"/>
<path d="M24.7032 10.1621C24.7154 8.29356 24.73 6.36115 23.1479 4.87317C21.3976 3.26487 18.8135 3.13965 18.0627 3.13965H17.4289C17.4143 3.13965 17.4021 3.13965 17.3874 3.13965C13.6308 3.35818 11.137 5.27586 10.5397 8.40406C10.4422 8.82148 10.5568 9.13086 10.6689 9.31747C10.8396 9.59984 11.1345 9.80364 11.5002 9.89204C11.5246 9.89695 11.549 9.90186 11.5733 9.90432L14.5328 10.2824C14.6035 10.2923 14.6766 10.2898 14.7473 10.2775C15.3129 10.1744 15.7249 9.74717 15.8468 9.13086C16.0759 8.13887 16.9438 7.88842 17.4655 7.82949H17.641C18.0944 7.82949 18.5356 8.02347 18.7477 8.31566C18.8673 8.50508 18.9305 8.74295 18.9633 9.00433C19.028 9.51863 18.5998 9.94797 18.0841 10.0007C17.8363 10.026 17.5848 10.0548 17.3338 10.0885C16.0979 10.2505 14.8058 10.4715 13.7015 10.997C11.3466 11.9693 9.99609 14.0343 9.99609 16.6714C9.99609 18.3608 10.53 19.7702 11.5368 20.7474C12.4778 21.6584 13.7649 22.1396 15.2568 22.1396C16.0881 22.1396 16.8316 22.0488 17.5995 21.8524C17.6117 21.8499 17.6263 21.845 17.6385 21.8401C18.2285 21.6532 18.7699 21.3853 19.3112 21.0038C19.8039 20.6566 20.4933 20.7291 20.9171 21.1576C21.0959 21.3384 21.3092 21.5358 21.5756 21.7615C21.6341 21.8106 21.6999 21.8499 21.7706 21.8794C22.2874 22.0856 22.8115 22.0292 23.204 21.7296C23.2113 21.7222 23.2211 21.7173 23.2284 21.71C23.8866 21.1575 24.9787 20.2121 25.5662 19.6769C26.0538 19.2644 26.1342 18.5965 25.7685 17.9704C25.7515 17.9433 25.7344 17.9163 25.7149 17.8918L25.6003 17.7445C25.0786 17.0815 24.7032 16.6002 24.7032 15.5027V10.6974C24.7032 10.5206 24.7032 10.3438 24.7032 10.1695V10.1621ZM18.5076 16.5683C18.5081 16.5683 18.5084 16.5689 18.5081 16.5694C18.4987 16.5837 18.4916 16.5982 18.4844 16.615C18.2467 17.0916 17.8558 17.4406 17.3948 17.591C17.3432 17.6078 17.2896 17.6166 17.236 17.6249C17.1966 17.631 17.1595 17.6379 17.1242 17.6438C17.0852 17.6511 17.0242 17.6634 17.0023 17.6634C15.9711 17.6634 15.859 16.5953 15.859 16.1362C15.859 14.9797 16.3977 14.3044 17.6044 13.9459C17.9523 13.8649 18.3584 13.8093 18.8175 13.779C18.9094 13.773 18.9866 13.8464 18.9866 13.9386V13.9386C18.9891 14.989 18.9915 15.7451 18.507 16.5673C18.5067 16.5677 18.507 16.5683 18.5076 16.5683V16.5683Z" stroke="#F36020" stroke-width="1.5" stroke-miterlimit="10"/>
</svg>
