<svg width="38" height="37" viewBox="0 0 38 37" fill="none" xmlns="http://www.w3.org/2000/svg">
<path d="M30.0444 16.8449V3.86947C30.0444 2.71634 29.1109 1.77942 27.962 1.77942H3.21911C2.06744 1.77942 1.13672 2.71634 1.13672 3.86947V17.6433C1.13672 18.7964 2.06744 19.7305 3.21911 19.7305H5.63016L7.34247 22.0756L9.05478 19.7305H11.6647" stroke="#410F09" stroke-width="2" stroke-miterlimit="10"/>
<path d="M14.8318 17.7404H35.1503C36.0948 17.7404 36.8599 18.5082 36.8599 19.4562V30.7657C36.8599 31.7137 36.0948 32.4816 35.1503 32.4816H33.1701L31.7644 34.4081L30.3586 32.4816H14.8346C13.89 32.4816 13.125 31.7137 13.125 30.7657V19.4562C13.125 18.5082 13.89 17.7404 14.8346 17.7404H14.8318Z" fill="#FFF5ED" stroke="#E44412" stroke-width="2" stroke-miterlimit="10"/>
<path d="M20.4911 7.92493L13.7274 14.7106L10.6895 11.6615" stroke="#410F09" stroke-width="2" stroke-miterlimit="10"/>
</svg>
