<svg width="35" height="35" viewBox="0 0 35 35" fill="none" xmlns="http://www.w3.org/2000/svg">
<path d="M23.2623 10.0189C22.5075 9.15302 22.0519 8.02195 22.0519 6.78662H21.1044M23.2623 10.0189C23.9513 10.81 24.8829 11.3834 25.946 11.6078C26.2769 11.6804 26.6215 11.7189 26.9796 11.7189V15.2617C25.1436 15.2617 23.4391 14.6724 22.0519 13.6773V20.883C22.0519 24.4848 19.1233 27.4088 15.5307 27.4088C13.6516 27.4088 11.9516 26.6041 10.7616 25.3257C9.67585 24.1584 9.01172 22.5966 9.01172 20.883C9.01172 17.3357 11.8541 14.4434 15.3743 14.3664M23.2623 10.0189C23.2441 10.0076 23.226 9.99395 23.2079 9.98262M13.1189 22.617C12.7653 22.1297 12.5545 21.5313 12.5545 20.8785C12.5545 19.2352 13.8896 17.9001 15.5307 17.9001C15.8367 17.9001 16.1336 17.9522 16.4101 18.0384V14.4185C16.1223 14.38 15.8321 14.3573 15.5307 14.3573C15.4785 14.3573 15.0547 14.3845 15.0025 14.3845M21.0999 6.78889H18.5068L18.5023 20.9941C18.4456 22.583 17.1332 23.8614 15.5307 23.8614C14.5356 23.8614 13.6607 23.3673 13.1144 22.6216" stroke="#F36020" stroke-miterlimit="10"/>
<path d="M26.5508 25.5479L32.8294 31.8265" stroke="#F9AC78" stroke-miterlimit="10"/>
<path d="M3.78125 2.78137L10.0395 9.03964" stroke="#F9AC78" stroke-miterlimit="10"/>
<path d="M30.7695 17.304H32.8753" stroke="#F9AC78" stroke-miterlimit="10"/>
<path d="M2.82031 17.304H4.67671" stroke="#F9AC78" stroke-miterlimit="10"/>
<path d="M29.6875 5.92071L32.8268 2.78137" stroke="#F9AC78" stroke-miterlimit="10"/>
<path d="M3.78125 31.8265L6.49218 29.1178" stroke="#F9AC78" stroke-miterlimit="10"/>
<path d="M18.3047 3.39796V2.2533" stroke="#F9AC78" stroke-miterlimit="10"/>
<path d="M18.3047 32.3547V30.2557" stroke="#F9AC78" stroke-miterlimit="10"/>
</svg>
