<svg width="34" height="35" viewBox="0 0 34 35" fill="none" xmlns="http://www.w3.org/2000/svg">
<g clip-path="url(#clip0_1210_1997)">
<path d="M28.056 18.4305V4.90074C28.056 3.89887 27.2423 3.0874 26.2427 3.0874H4.68443C3.68029 3.0874 2.87109 3.90114 2.87109 4.90074V19.1241C2.87109 20.1259 3.68256 20.9351 4.68443 20.9351H6.78563L8.27709 22.9706L9.76856 20.9351H12.042" stroke="#410F09" stroke-width="2" stroke-miterlimit="10"/>
<path d="M14.3754 18.6957H31.0513C31.8265 18.6957 32.4543 19.3235 32.4543 20.0987V29.3467C32.4543 30.1219 31.8265 30.7498 31.0513 30.7498H29.4261L28.2723 32.3251L27.1186 30.7498H14.3777C13.6025 30.7498 12.9746 30.1219 12.9746 29.3467V20.0987C12.9746 19.3235 13.6025 18.6957 14.3777 18.6957H14.3754Z" stroke="#410F09" stroke-width="2" stroke-miterlimit="10"/>
<path d="M10.0921 9.18237C9.64782 9.18237 9.28516 9.54277 9.28516 9.98931V16.438C9.28516 16.8822 9.64556 17.2449 10.0921 17.2449C10.5386 17.2449 10.899 16.8845 10.899 16.438V9.98931C10.899 9.54504 10.5386 9.18237 10.0921 9.18237Z" fill="#F36020"/>
<path d="M10.0921 5.95923C9.64782 5.95923 9.28516 6.31963 9.28516 6.76616V7.84056C9.28516 8.28483 9.64556 8.64749 10.0921 8.64749C10.5386 8.64749 10.899 8.2871 10.899 7.84056V6.76616C10.899 6.3219 10.5386 5.95923 10.0921 5.95923Z" fill="#F36020"/>
<path d="M17.6161 9.18237C15.3902 9.18237 13.5859 10.9866 13.5859 13.2125V16.4357C13.5859 16.88 13.9463 17.2426 14.3929 17.2426C14.8394 17.2426 15.1998 16.8822 15.1998 16.4357V13.2125C15.1998 11.8774 16.2833 10.794 17.6183 10.794C18.9534 10.794 20.0369 11.8774 20.0369 13.2125V16.4357C20.0369 16.88 20.3973 17.2426 20.8438 17.2426C21.2903 17.2426 21.6507 16.8822 21.6507 16.4357V13.2125C21.6507 10.9866 19.8465 9.18237 17.6206 9.18237H17.6161Z" fill="#F36020"/>
</g>
<defs>
<clipPath id="clip0_1210_1997">
<rect width="34" height="34" fill="white" transform="translate(0 0.140747)"/>
</clipPath>
</defs>
</svg>
