<svg width="35" height="35" viewBox="0 0 35 35" fill="none" xmlns="http://www.w3.org/2000/svg">
<path d="M30.8561 15.1733C30.8561 19.4233 28.2132 23.9952 22.4332 23.9952C21.1389 23.9952 19.8945 23.4399 19.0014 22.506L17.7049 26.8603C16.5421 26.5475 15.4496 26.0601 14.4568 25.4323L17.0838 17.5307C17.0838 17.5307 16.7597 16.5447 16.7597 15.1461C16.7597 12.3604 18.2625 11.5195 19.4548 11.5195C20.647 11.5195 21.76 11.9456 21.76 13.6433C21.76 15.8193 20.3093 16.9345 20.3093 18.4895C20.3093 19.7067 21.293 20.6791 22.4853 20.6791C26.2684 20.6791 27.617 17.8412 27.617 15.1733C27.617 11.6351 24.5593 8.77227 20.8148 8.77227C17.0702 8.77227 14.0125 11.6351 14.0125 15.1733C14.0125 16.2613 14.3366 17.3493 14.8942 18.2945C15.0348 18.5552 15.1141 18.8385 15.1141 19.1377C15.1141 20.0308 14.3888 20.7561 13.4934 20.7561C12.9245 20.7561 12.3918 20.432 12.0949 19.9537C11.2313 18.5076 10.7757 16.8552 10.7734 15.1733C10.7734 9.84667 15.2818 5.5332 20.8148 5.5332C26.3477 5.5332 30.8561 9.84667 30.8561 15.1733Z" fill="#F36020"/>
<path d="M32.7141 15.3728C32.7141 21.9438 27.3851 27.2705 20.8141 27.2705C19.7374 27.2705 18.697 27.1277 17.7042 26.8602C16.5414 26.5474 15.4489 26.0601 14.4561 25.4322C11.3417 23.4602 9.20873 20.0829 8.9458 16.1933C8.9254 15.9236 8.91406 15.647 8.91406 15.3728C8.91406 13.7249 9.24726 12.1564 9.85473 10.7284C11.6635 6.46478 15.8863 3.47278 20.8141 3.47278C27.3851 3.47278 32.7141 8.80171 32.7141 15.3728Z" stroke="#410F09" stroke-width="1.5" stroke-miterlimit="10"/>
<path d="M11.6485 22.9592L3.47266 31.1351" stroke="#410F09" stroke-width="1.5" stroke-miterlimit="10"/>
</svg>
