<svg width="43" height="44" viewBox="0 0 43 44" fill="none" xmlns="http://www.w3.org/2000/svg">
<path d="M30.8234 42.4998C35.992 42.4998 40.182 38.3099 40.182 33.1413C40.182 27.9727 35.992 23.7827 30.8234 23.7827C25.6548 23.7827 21.4648 27.9727 21.4648 33.1413C21.4648 38.3099 25.6548 42.4998 30.8234 42.4998Z" stroke="#410F09" stroke-width="2" stroke-miterlimit="10"/>
<g filter="url(#filter0_dddd_511_5281)">
<path d="M30.8234 21.2171C35.992 21.2171 40.182 17.0271 40.182 11.8586C40.182 6.68997 35.992 2.5 30.8234 2.5C25.6548 2.5 21.4648 6.68997 21.4648 11.8586C21.4648 17.0271 25.6548 21.2171 30.8234 21.2171Z" fill="#FFF5ED"/>
<path d="M30.8234 21.2171C35.992 21.2171 40.182 17.0271 40.182 11.8586C40.182 6.68997 35.992 2.5 30.8234 2.5C25.6548 2.5 21.4648 6.68997 21.4648 11.8586C21.4648 17.0271 25.6548 21.2171 30.8234 21.2171Z" stroke="#E44412" stroke-width="2" stroke-miterlimit="10"/>
</g>
<path d="M34.5031 29.4585L27.1445 36.8207" stroke="#410F09" stroke-width="2" stroke-miterlimit="10"/>
<path d="M34.5031 36.8207L27.1445 29.4585" stroke="#410F09" stroke-width="2" stroke-miterlimit="10"/>
<path d="M11.6567 17.1322C15.1217 17.1322 17.9306 14.3233 17.9306 10.8583C17.9306 7.39338 15.1217 4.58447 11.6567 4.58447C8.19172 4.58447 5.38281 7.39338 5.38281 10.8583C5.38281 14.3233 8.19172 17.1322 11.6567 17.1322Z" stroke="#410F09" stroke-width="2" stroke-miterlimit="10"/>
<path d="M22.2505 36.8892C22.1187 37.4848 21.7934 38.0201 21.3253 38.4112C20.8572 38.8024 20.2726 39.0275 19.6631 39.0513H3.76757C3.03701 39.0523 2.33578 38.764 1.81717 38.2494C1.29856 37.7349 1.00476 37.0359 1 36.3054V31.0333C0.998453 28.9242 1.62282 26.8621 2.79405 25.1081C3.96528 23.3541 5.63067 21.9871 7.57933 21.1802C9.52799 20.3734 11.6723 20.1629 13.7406 20.5756C15.809 20.9882 17.7083 22.0053 19.1982 23.4982C19.3604 23.664 19.5189 23.8333 19.6667 24.0063C21.0343 25.5483 21.9189 27.4579 22.2108 29.4982" stroke="#410F09" stroke-width="2" stroke-miterlimit="10"/>
<path d="M34.8275 9.09473L29.3032 14.6191L26.8203 12.1362" stroke="#E44412" stroke-width="2" stroke-miterlimit="10"/>
<defs>
<filter id="filter0_dddd_511_5281" x="11.4648" y="0.5" width="30.7168" height="29.7173" filterUnits="userSpaceOnUse" color-interpolation-filters="sRGB">
<feFlood flood-opacity="0" result="BackgroundImageFix"/>
<feColorMatrix in="SourceAlpha" type="matrix" values="0 0 0 0 0 0 0 0 0 0 0 0 0 0 0 0 0 0 127 0" result="hardAlpha"/>
<feOffset/>
<feGaussianBlur stdDeviation="0.5"/>
<feColorMatrix type="matrix" values="0 0 0 0 0.254902 0 0 0 0 0.0588235 0 0 0 0 0.0352941 0 0 0 0.2 0"/>
<feBlend mode="normal" in2="BackgroundImageFix" result="effect1_dropShadow_511_5281"/>
<feColorMatrix in="SourceAlpha" type="matrix" values="0 0 0 0 0 0 0 0 0 0 0 0 0 0 0 0 0 0 127 0" result="hardAlpha"/>
<feOffset dx="-1" dy="1"/>
<feGaussianBlur stdDeviation="1"/>
<feColorMatrix type="matrix" values="0 0 0 0 0.254902 0 0 0 0 0.0588235 0 0 0 0 0.0352941 0 0 0 0.17 0"/>
<feBlend mode="normal" in2="effect1_dropShadow_511_5281" result="effect2_dropShadow_511_5281"/>
<feColorMatrix in="SourceAlpha" type="matrix" values="0 0 0 0 0 0 0 0 0 0 0 0 0 0 0 0 0 0 127 0" result="hardAlpha"/>
<feOffset dx="-3" dy="3"/>
<feGaussianBlur stdDeviation="1.5"/>
<feColorMatrix type="matrix" values="0 0 0 0 0.254902 0 0 0 0 0.0588235 0 0 0 0 0.0352941 0 0 0 0.1 0"/>
<feBlend mode="normal" in2="effect2_dropShadow_511_5281" result="effect3_dropShadow_511_5281"/>
<feColorMatrix in="SourceAlpha" type="matrix" values="0 0 0 0 0 0 0 0 0 0 0 0 0 0 0 0 0 0 127 0" result="hardAlpha"/>
<feOffset dx="-6" dy="5"/>
<feGaussianBlur stdDeviation="1.5"/>
<feColorMatrix type="matrix" values="0 0 0 0 0.254902 0 0 0 0 0.0588235 0 0 0 0 0.0352941 0 0 0 0.03 0"/>
<feBlend mode="normal" in2="effect3_dropShadow_511_5281" result="effect4_dropShadow_511_5281"/>
<feBlend mode="normal" in="SourceGraphic" in2="effect4_dropShadow_511_5281" result="shape"/>
</filter>
</defs>
</svg>
