<svg width="40" height="50" viewBox="0 0 40 50" fill="none" xmlns="http://www.w3.org/2000/svg">
<path d="M38.6898 20.5454L27.8398 31.3953" stroke="#E44412" stroke-width="2" stroke-miterlimit="10"/>
<path d="M1 39.1787L15.4123 24.77L23.3219 32.6796" stroke="#E44412" stroke-width="2" stroke-miterlimit="10"/>
<g filter="url(#filter0_dddd_511_5406)">
<path d="M26.9124 28.484L28.171 32.3646C28.2005 32.4527 28.2568 32.5294 28.332 32.5839C28.4072 32.6383 28.4976 32.6679 28.5905 32.6684H32.6556C32.7492 32.6679 32.8405 32.6971 32.9164 32.7518C32.9922 32.8066 33.0487 32.884 33.0777 32.973C33.1067 33.0619 33.1067 33.1578 33.0776 33.2467C33.0485 33.3356 32.992 33.413 32.916 33.4677L29.614 35.8655C29.5355 35.9199 29.4765 35.9982 29.4459 36.0887C29.4153 36.1793 29.4146 36.2773 29.4441 36.3682L30.7063 40.2489C30.736 40.3378 30.7367 40.4338 30.7082 40.5232C30.6797 40.6125 30.6235 40.6904 30.5477 40.7456C30.472 40.8008 30.3806 40.8304 30.2868 40.8302C30.1931 40.83 30.1019 40.7999 30.0263 40.7444L26.7244 38.3465C26.6491 38.2921 26.5586 38.2628 26.4658 38.2628C26.3729 38.2628 26.2824 38.2921 26.2072 38.3465L22.9341 40.7444C22.8585 40.7984 22.7678 40.8273 22.6749 40.8268C22.5819 40.8262 22.4916 40.7964 22.4166 40.7415C22.3416 40.6865 22.2859 40.6094 22.2574 40.5209C22.2289 40.4324 22.229 40.3372 22.2578 40.2489L23.4983 36.3682C23.528 36.28 23.5286 36.1846 23.5 36.096C23.4713 36.0074 23.415 35.9304 23.3392 35.8764L20.0408 33.4785C19.9649 33.4239 19.9083 33.3465 19.8793 33.2575C19.8502 33.1686 19.8501 33.0728 19.8791 32.9838C19.9081 32.8948 19.9646 32.8174 20.0405 32.7627C20.1163 32.7079 20.2077 32.6787 20.3012 32.6793H24.3808C24.4738 32.6793 24.5645 32.65 24.6398 32.5954C24.7152 32.5408 24.7713 32.4639 24.8003 32.3755L26.0589 28.484C26.0837 28.3896 26.139 28.3062 26.2162 28.2466C26.2934 28.1871 26.3881 28.1548 26.4857 28.1548C26.5832 28.1548 26.6779 28.1871 26.7551 28.2466C26.8324 28.3062 26.8877 28.3896 26.9124 28.484Z" fill="#FFF5ED"/>
<path d="M26.9124 28.484L28.171 32.3646C28.2005 32.4527 28.2568 32.5294 28.332 32.5839C28.4072 32.6383 28.4976 32.6679 28.5905 32.6684H32.6556C32.7492 32.6679 32.8405 32.6971 32.9164 32.7518C32.9922 32.8066 33.0487 32.884 33.0777 32.973C33.1067 33.0619 33.1067 33.1578 33.0776 33.2467C33.0485 33.3356 32.992 33.413 32.916 33.4677L29.614 35.8655C29.5355 35.9199 29.4765 35.9982 29.4459 36.0887C29.4153 36.1793 29.4146 36.2773 29.4441 36.3682L30.7063 40.2489C30.736 40.3378 30.7367 40.4338 30.7082 40.5232C30.6797 40.6125 30.6235 40.6904 30.5477 40.7456C30.472 40.8008 30.3806 40.8304 30.2868 40.8302C30.1931 40.83 30.1019 40.7999 30.0263 40.7444L26.7244 38.3465C26.6491 38.2921 26.5586 38.2628 26.4658 38.2628C26.3729 38.2628 26.2824 38.2921 26.2072 38.3465L22.9341 40.7444C22.8585 40.7984 22.7678 40.8273 22.6749 40.8268C22.5819 40.8262 22.4916 40.7964 22.4166 40.7415C22.3416 40.6865 22.2859 40.6094 22.2574 40.5209C22.2289 40.4324 22.229 40.3372 22.2578 40.2489L23.4983 36.3682C23.528 36.28 23.5286 36.1846 23.5 36.096C23.4713 36.0074 23.415 35.9304 23.3392 35.8764L20.0408 33.4785C19.9649 33.4239 19.9083 33.3465 19.8793 33.2575C19.8502 33.1686 19.8501 33.0728 19.8791 32.9838C19.9081 32.8948 19.9646 32.8174 20.0405 32.7627C20.1163 32.7079 20.2077 32.6787 20.3012 32.6793H24.3808C24.4738 32.6793 24.5645 32.65 24.6398 32.5954C24.7152 32.5408 24.7713 32.4639 24.8003 32.3755L26.0589 28.484C26.0837 28.3896 26.139 28.3062 26.2162 28.2466C26.2934 28.1871 26.3881 28.1548 26.4857 28.1548C26.5832 28.1548 26.6779 28.1871 26.7551 28.2466C26.8324 28.3062 26.8877 28.3896 26.9124 28.484Z" stroke="#E44412" stroke-width="2" stroke-miterlimit="10"/>
</g>
<path d="M5.57422 29.9308V3.61255C5.57421 2.87298 5.86727 2.16353 6.38921 1.63955C6.91115 1.11557 7.61946 0.819765 8.35903 0.816895H30.5724C31.3142 0.816894 32.0257 1.11132 32.5505 1.6355C33.0754 2.15969 33.3707 2.87077 33.3717 3.61255V17.2364" stroke="#410F09" stroke-width="1.5" stroke-miterlimit="10"/>
<path d="M38.6277 25.5002L38.6892 20.5454L33.7344 20.6105" stroke="#E44412" stroke-width="2" stroke-miterlimit="10"/>
<defs>
<filter id="filter0_dddd_511_5406" x="9.85742" y="26.1548" width="25.2422" height="23.6753" filterUnits="userSpaceOnUse" color-interpolation-filters="sRGB">
<feFlood flood-opacity="0" result="BackgroundImageFix"/>
<feColorMatrix in="SourceAlpha" type="matrix" values="0 0 0 0 0 0 0 0 0 0 0 0 0 0 0 0 0 0 127 0" result="hardAlpha"/>
<feOffset/>
<feGaussianBlur stdDeviation="0.5"/>
<feColorMatrix type="matrix" values="0 0 0 0 0.254902 0 0 0 0 0.0588235 0 0 0 0 0.0352941 0 0 0 0.2 0"/>
<feBlend mode="normal" in2="BackgroundImageFix" result="effect1_dropShadow_511_5406"/>
<feColorMatrix in="SourceAlpha" type="matrix" values="0 0 0 0 0 0 0 0 0 0 0 0 0 0 0 0 0 0 127 0" result="hardAlpha"/>
<feOffset dx="-1" dy="1"/>
<feGaussianBlur stdDeviation="1"/>
<feColorMatrix type="matrix" values="0 0 0 0 0.254902 0 0 0 0 0.0588235 0 0 0 0 0.0352941 0 0 0 0.17 0"/>
<feBlend mode="normal" in2="effect1_dropShadow_511_5406" result="effect2_dropShadow_511_5406"/>
<feColorMatrix in="SourceAlpha" type="matrix" values="0 0 0 0 0 0 0 0 0 0 0 0 0 0 0 0 0 0 127 0" result="hardAlpha"/>
<feOffset dx="-3" dy="3"/>
<feGaussianBlur stdDeviation="1.5"/>
<feColorMatrix type="matrix" values="0 0 0 0 0.254902 0 0 0 0 0.0588235 0 0 0 0 0.0352941 0 0 0 0.1 0"/>
<feBlend mode="normal" in2="effect2_dropShadow_511_5406" result="effect3_dropShadow_511_5406"/>
<feColorMatrix in="SourceAlpha" type="matrix" values="0 0 0 0 0 0 0 0 0 0 0 0 0 0 0 0 0 0 127 0" result="hardAlpha"/>
<feOffset dx="-6" dy="5"/>
<feGaussianBlur stdDeviation="1.5"/>
<feColorMatrix type="matrix" values="0 0 0 0 0.254902 0 0 0 0 0.0588235 0 0 0 0 0.0352941 0 0 0 0.03 0"/>
<feBlend mode="normal" in2="effect3_dropShadow_511_5406" result="effect4_dropShadow_511_5406"/>
<feBlend mode="normal" in="SourceGraphic" in2="effect4_dropShadow_511_5406" result="shape"/>
</filter>
</defs>
</svg>
