<svg width="137" height="42" viewBox="0 0 137 42" fill="none" xmlns="http://www.w3.org/2000/svg">
<g clip-path="url(#clip0_567_9566)">
<path d="M14.7911 27.7502H6.46302L4.9869 31.8373H0L7.8793 10.1627H13.704L21.6132 31.8373H16.2573L14.7911 27.7502ZM10.6121 15.8187L7.8793 23.4433H13.315L10.6121 15.8187Z" fill="#431407"/>
<path d="M24.4961 10.1627H31.0788C39.4269 10.1627 43.0473 14.9193 43.0473 21.065C43.0473 27.2106 38.7087 31.8373 30.9192 31.8373H24.4961V10.1627ZM29.3633 15.1592V27.3205H31.0489C35.7066 27.3205 38.0305 24.8223 38.0305 21.1849C38.0305 17.5475 35.5072 15.1892 31.0489 15.1892L29.3633 15.1592Z" fill="#431407"/>
<path d="M67.2227 10.1627H72.0899V18.8066H81.0663V10.1627H85.9335V31.8373H81.0763V23.3233H72.0998V31.8373H67.2227V10.1627Z" fill="#431407"/>
<path d="M88.8262 10.1627H102.789V15.1592H93.6934V18.7466H102.111V23.2934H93.6934V27.2905H102.799V31.8073H88.8361L88.8262 10.1627Z" fill="#431407"/>
<path d="M105.723 10.1627H110.59V27.3205H118.689V31.8373H105.723V10.1627Z" fill="#431407"/>
<path d="M126.418 25.5518V31.8373H121.551V10.1627H127.665C133.22 10.1627 137.04 12.5111 137.04 17.7773C137.04 23.0435 133.22 25.5518 127.725 25.5518H126.418ZM126.418 15.1892V21.2748H127.924C130.477 21.2748 132.013 20.2755 132.013 18.167C132.013 16.0585 130.507 15.1692 128.024 15.1692L126.418 15.1892Z" fill="#431407"/>
<path d="M46.416 41.97L43.4238 36.7837L52.9787 31.2577C53.3364 31.0532 53.6496 30.7789 53.8997 30.4511C54.1498 30.1232 54.3318 29.7485 54.4349 29.349C54.5413 28.9533 54.5687 28.5404 54.5156 28.134C54.4626 27.7277 54.3301 27.3358 54.1257 26.9807L48.9493 17.9872C47.7416 15.8862 47.4151 13.3911 48.0416 11.0493C48.668 8.70748 50.1961 6.71032 52.2905 5.49607L61.8354 0L64.8276 5.19629L55.2727 10.7123C54.5615 11.1336 54.0438 11.8179 53.8311 12.6178C53.6185 13.4178 53.7278 14.2694 54.1357 14.9893L59.3121 23.9829C59.9114 25.0228 60.3004 26.1709 60.4568 27.3615C60.6133 28.5521 60.5341 29.7619 60.2238 30.9218C59.9135 32.0817 59.3783 33.1691 58.6485 34.1217C57.9188 35.0744 57.0089 35.8737 55.9709 36.4739L46.416 41.97Z" fill="#EA580C"/>
</g>
<defs>
<clipPath id="clip0_567_9566">
<rect width="137" height="42" fill="white"/>
</clipPath>
</defs>
</svg>
