<svg width="166" height="34" viewBox="0 0 166 34" fill="none" xmlns="http://www.w3.org/2000/svg">
<path d="M47.8828 24.053H39.1602L37.6184 28.3349H32.3906L40.6404 5.66182H46.7492L55.0313 28.3349H49.4246L47.8828 24.053ZM43.5069 11.5827L40.6404 19.5507H46.3411L43.5069 11.5827Z" fill="#FEE9D6"/>
<path d="M56.6504 5.66182H63.5463C72.3013 5.66182 76.0813 10.637 76.0813 17.0599C76.0813 23.4829 71.5466 28.3349 63.3584 28.3349H56.6504V5.66182ZM61.7518 10.922V23.6125H63.5171C68.3983 23.6125 70.8535 20.9986 70.8535 17.1895C70.8535 13.3804 68.2072 10.922 63.5786 10.922H61.7518Z" fill="#FEE9D6"/>
<path d="M95.1504 5.66182H100.252V14.6987H109.668V5.66182H114.769V28.3349H109.668V19.4244H100.252V28.3349H95.1504V5.66182Z" fill="#FEE9D6"/>
<path d="M117.359 5.66182H132.003V10.922H122.461V14.6695H128.427L127.478 19.4244H122.461V23.6125H132.003V28.3349H117.359V5.66182Z" fill="#FEE9D6"/>
<path d="M134.268 5.66182H139.369V23.6125H147.871V28.3349H134.268V5.66182Z" fill="#FEE9D6"/>
<path d="M154.916 21.7533V28.3349H149.814V5.66182H156.176C162.003 5.66182 166 8.117 166 13.6298C166 19.1426 162 21.7533 156.237 21.7533H154.916ZM154.916 10.922V17.2834H156.49C159.165 17.2834 160.772 16.2761 160.772 14.0379C160.772 11.7998 159.198 10.922 156.584 10.922H154.916Z" fill="#FEE9D6"/>
<path d="M91.26 16.9984C90.0972 16.0493 88.4356 15.4501 86.3529 14.9934C83.8297 14.4169 82.1551 13.8695 82.1551 12.8654C82.1551 11.6799 84.1342 10.9803 86.2622 10.9803C88.238 10.9803 90.2494 11.5277 91.9823 12.0751L91.9499 6.05698C88.4485 5.66182 87.5708 5.66182 85.9869 5.66182C80.4255 5.66182 78.0254 8.64172 78.0254 12.5933C78.0254 14.5626 78.5922 15.9684 79.6481 16.9984C80.8109 17.9474 82.4726 18.5466 84.5552 19.0033C87.0784 19.5799 88.753 20.1273 88.753 21.1314C88.753 22.3168 86.774 23.0165 84.6459 23.0165C82.6701 23.0165 80.6555 22.6084 78.9226 22.061L78.955 27.9398C82.4564 28.3349 83.3341 28.3349 84.918 28.3349C90.4794 28.3349 92.8795 25.355 92.8795 21.4034C92.8795 19.4341 92.3127 18.0284 91.2568 16.9984H91.26Z" fill="#FEE9D6"/>
<path d="M32.3902 0.803297L26.5859 16.7555L26.5243 16.9271L26.4692 17.0761C26.4692 17.0761 26.4628 17.0956 26.4595 17.102C26.0028 18.2648 25.2481 19.2786 24.2959 20.0528C23.2691 20.8884 22.0091 21.4423 20.6261 21.6107C20.341 21.6464 20.0528 21.6626 19.7612 21.6626C19.677 21.6626 19.5961 21.6626 19.5151 21.6593C18.8025 21.6367 18.1126 21.5071 17.468 21.2901C17.4615 21.2901 17.4583 21.2868 17.4551 21.2868L17.1506 21.1767C17.1506 21.1767 17.1312 21.1702 17.1247 21.167L12.156 19.3596H12.1528L12.1172 19.3467C11.3463 19.0649 10.5106 19.5475 10.3681 20.354L10.3616 20.3929V20.422L9.38019 25.9543L8.10402 33.1967H0L5.80756 17.2413L5.8691 17.0696L5.92092 16.9304C5.92092 16.9304 5.93064 16.9044 5.93388 16.8947C6.39058 15.7319 7.14527 14.7181 8.09754 13.944C9.12431 13.1083 10.3843 12.5544 11.7673 12.3893C12.0524 12.3536 12.3407 12.3374 12.6322 12.3374C12.7164 12.3374 12.7974 12.3374 12.8783 12.3407C13.5942 12.3633 14.2841 12.4929 14.9319 12.7099C14.9319 12.7099 14.9383 12.7099 14.9416 12.7099L15.2299 12.8168L20.2277 14.6371C20.2277 14.6371 20.2374 14.6404 20.2406 14.6436C20.2406 14.6436 20.2536 14.6469 20.2601 14.6501L20.2762 14.6566C21.0439 14.9351 21.8796 14.4525 22.0221 13.6492C22.0221 13.6492 22.0253 13.6233 22.0286 13.6104C22.0286 13.6007 22.0318 13.5909 22.035 13.5812L23.01 8.04898L24.2861 0.806536H32.3837L32.3902 0.803297Z" fill="#E44412"/>
</svg>
