<svg width="41" height="42" viewBox="0 0 41 42" fill="none" xmlns="http://www.w3.org/2000/svg">
<path d="M30.8967 36.2857H8.9125C8.46744 36.2857 8.0406 36.1089 7.72589 35.7942C7.41118 35.4795 7.23438 35.0526 7.23438 34.6076V18.9296C7.23438 18.4845 7.41118 18.0577 7.72589 17.743C8.0406 17.4283 8.46744 17.2515 8.9125 17.2515H34.5106C34.9545 17.2532 35.3797 17.4308 35.6929 17.7453C36.0062 18.0598 36.1821 18.4857 36.1821 18.9296V32.936" stroke="#FEE9D6" stroke-width="1.5" stroke-miterlimit="10"/>
<path d="M10.9199 32.1167L19.3436 23.6963L24.9098 29.2625L32.947 21.2253" stroke="#FEE9D6" stroke-width="1.5" stroke-miterlimit="10"/>
<path d="M34.0051 29.1173L35.158 32.6585C35.1834 32.7402 35.2344 32.8115 35.3034 32.862C35.3723 32.9126 35.4557 32.9397 35.5412 32.9393H39.2674C39.3528 32.9383 39.4362 32.9647 39.5055 33.0145C39.5748 33.0643 39.6264 33.135 39.6526 33.2163C39.6788 33.2975 39.6783 33.385 39.6512 33.4659C39.6241 33.5469 39.5718 33.617 39.502 33.6661L36.4893 35.8562C36.4198 35.9062 36.3682 35.9771 36.342 36.0586C36.3159 36.14 36.3165 36.2278 36.3439 36.3088L37.5034 39.8501C37.5306 39.9313 37.5312 40.019 37.5052 40.1006C37.4792 40.1822 37.4278 40.2533 37.3586 40.3037C37.2894 40.3542 37.2059 40.3813 37.1203 40.3811C37.0347 40.3809 36.9513 40.3534 36.8824 40.3026L33.8697 38.1092C33.801 38.0595 33.7183 38.0327 33.6335 38.0327C33.5487 38.0327 33.466 38.0595 33.3973 38.1092L30.3813 40.2993C30.3123 40.3501 30.229 40.3775 30.1433 40.3778C30.0577 40.378 29.9742 40.3509 29.905 40.3004C29.8358 40.25 29.7845 40.1789 29.7585 40.0973C29.7324 40.0157 29.733 39.928 29.7602 39.8468L30.8966 36.3088C30.9225 36.2276 30.9223 36.1404 30.8963 36.0593C30.8702 35.9782 30.8195 35.9072 30.7513 35.8562L27.7353 33.6661C27.6673 33.6157 27.6169 33.5452 27.5913 33.4646C27.5656 33.384 27.5659 33.2974 27.5923 33.217C27.6186 33.1366 27.6695 33.0665 27.7379 33.0167C27.8062 32.9669 27.8885 32.9398 27.9731 32.9393H31.7059C31.7913 32.9392 31.8744 32.9119 31.9433 32.8614C32.0122 32.8109 32.0632 32.7399 32.0891 32.6585L33.2387 29.1173C33.2651 29.0364 33.3163 28.966 33.3852 28.916C33.454 28.866 33.5369 28.8391 33.6219 28.8391C33.707 28.8391 33.7899 28.866 33.8587 28.916C33.9275 28.966 33.9788 29.0364 34.0051 29.1173Z" fill="#46120C" stroke="#F36020" stroke-width="2" stroke-miterlimit="10"/>
<path d="M7.23353 30.693H3.12079C2.55802 30.6922 2.01859 30.468 1.62096 30.0697C1.22333 29.6715 0.999999 29.1317 1 28.5689V12.4417C0.999999 11.8789 1.22333 11.3392 1.62096 10.9409C2.01859 10.5427 2.55802 10.3185 3.12079 10.3176H30.6051C30.8839 10.3176 31.16 10.3726 31.4175 10.4794C31.675 10.5862 31.9089 10.7427 32.1059 10.94C32.3029 11.1372 32.459 11.3714 32.5654 11.6291C32.6718 11.8868 32.7263 12.1629 32.7259 12.4417V17.2515" stroke="#FEE9D6" stroke-width="1.5" stroke-miterlimit="10"/>
<path d="M30.0429 0.945801H18.2299C16.2541 0.945801 14.6523 2.54754 14.6523 4.52339C14.6523 6.49924 16.2541 8.10098 18.2299 8.10098H30.0429C32.0188 8.10098 33.6205 6.49924 33.6205 4.52339C33.6205 2.54754 32.0188 0.945801 30.0429 0.945801Z" stroke="#FEE9D6" stroke-width="1.5" stroke-miterlimit="10"/>
<path d="M18.4886 6.77954C19.7347 6.77954 20.7449 5.76939 20.7449 4.52332C20.7449 3.27724 19.7347 2.26709 18.4886 2.26709C17.2426 2.26709 16.2324 3.27724 16.2324 4.52332C16.2324 5.76939 17.2426 6.77954 18.4886 6.77954Z" fill="#FEE9D6"/>
</svg>
