<svg width="41" height="42" viewBox="0 0 41 42" fill="none" xmlns="http://www.w3.org/2000/svg">
<path d="M38.0863 7.76294H13.6947C12.8116 7.76294 12.0957 8.47885 12.0957 9.36197V24.2978C12.0957 25.1809 12.8116 25.8968 13.6947 25.8968H38.0863C38.9694 25.8968 39.6853 25.1809 39.6853 24.2978V9.36197C39.6853 8.47885 38.9694 7.76294 38.0863 7.76294Z" stroke="#FEE9D6" stroke-width="1.5" stroke-miterlimit="10"/>
<path d="M12.0958 18.9781H7.29242C7.08163 18.9781 6.87293 18.9365 6.67831 18.8555C6.48369 18.7746 6.30699 18.6559 6.15838 18.5065C6.00977 18.357 5.89219 18.1796 5.81239 17.9845C5.73258 17.7894 5.69214 17.5804 5.69339 17.3697V2.44327C5.69339 2.01918 5.86186 1.61246 6.16173 1.31259C6.46161 1.01271 6.86833 0.844241 7.29242 0.844241H26.4934C26.7035 0.843827 26.9116 0.884904 27.1058 0.965116C27.3 1.04533 27.4764 1.1631 27.625 1.31166C27.7736 1.46023 27.8913 1.63667 27.9715 1.83086C28.0518 2.02505 28.0928 2.23317 28.0924 2.44327V7.76289" stroke="#FEE9D6" stroke-width="1.5" stroke-miterlimit="10"/>
<path d="M15.6094 21.9244L23.6329 13.9009L28.9399 19.2047L36.5982 11.5464" stroke="#FEE9D6" stroke-width="1.5" stroke-miterlimit="10"/>
<path d="M19.168 30.4736L29.6404 40.946" stroke="#E44412" stroke-width="2" stroke-miterlimit="10"/>
<path d="M12.0956 33.0231C18.2236 33.0231 23.1913 28.0554 23.1913 21.9274C23.1913 15.7995 18.2236 10.8318 12.0956 10.8318C5.96769 10.8318 1 15.7995 1 21.9274C1 28.0554 5.96769 33.0231 12.0956 33.0231Z" fill="#46120C" stroke="#E44412" stroke-width="2" stroke-miterlimit="10"/>
</svg>
