<svg width="40" height="42" viewBox="0 0 40 42" fill="none" xmlns="http://www.w3.org/2000/svg">
<path d="M23.0898 9.68612C23.0898 6.85384 22.4621 4.71236 21.1045 3.22864C19.747 1.74492 17.0048 1.00006 14.4728 1.00006C11.9214 0.9928 9.41432 1.66675 7.21044 2.95232C7.14258 2.9929 7.0866 3.05062 7.04811 3.11968C7.00962 3.18874 6.98999 3.26672 6.99118 3.34577L7.18341 6.46038C7.19458 6.53324 7.22037 6.60309 7.25924 6.66573C7.2981 6.72837 7.34923 6.7825 7.40955 6.82487C7.46988 6.86723 7.53815 6.89696 7.61026 6.91226C7.68236 6.92756 7.75682 6.92812 7.82915 6.91391C7.92843 6.89525 8.0214 6.85187 8.09947 6.78776C11.2051 4.86854 14.9354 4.51112 16.8336 5.47824C17.3556 5.77767 17.786 6.21401 18.0782 6.74016C18.3704 7.2663 18.5133 7.86226 18.4915 8.4637V8.92924H13.3045C11.0789 8.92924 4.25201 9.7582 4.25201 16.0355V16.1015C4.19764 17.0563 4.36952 18.0104 4.75365 18.8862C5.13779 19.762 5.72332 20.5347 6.46257 21.1414C8.07949 22.2764 10.0315 22.834 12.004 22.7242H22.4951C22.5756 22.7242 22.6552 22.7081 22.7293 22.6768C22.8033 22.6455 22.8704 22.5997 22.9264 22.5419C22.9824 22.4842 23.0263 22.4159 23.0554 22.3409C23.0845 22.2659 23.0982 22.1859 23.0958 22.1055L23.0789 9.05249L23.0898 9.68612ZM18.4915 18.8708H12.3013C11.5083 18.8517 10.7409 18.5861 10.1058 18.1109C9.77965 17.8803 9.5144 17.574 9.33286 17.2182C9.15131 16.8624 9.05891 16.4679 9.06358 16.0685C9.06358 14.9482 9.81746 12.7136 13.5958 12.7136H18.4915V18.8708Z" fill="#46120C" stroke="#F36020" stroke-width="2" stroke-miterlimit="10"/>
<path d="M1 13.7859V34.0894C1 35.0007 1.362 35.8746 2.00637 36.519C2.65075 37.1634 3.5247 37.5254 4.43598 37.5254H24.5202" stroke="#FEE9D6" stroke-width="1.5" stroke-miterlimit="10"/>
<path d="M27 10.3499H33.6511C34.1023 10.3499 34.5491 10.4387 34.966 10.6114C35.3829 10.7841 35.7617 11.0372 36.0807 11.3562C36.3998 11.6753 36.6529 12.0541 36.8255 12.4709C36.9982 12.8878 37.0871 13.3346 37.0871 13.7858V28.2986" stroke="#FEE9D6" stroke-width="1.5" stroke-miterlimit="10"/>
<path d="M30.8996 40.8442C35.2075 40.8442 38.6997 37.352 38.6997 33.0442C38.6997 28.7363 35.2075 25.2441 30.8996 25.2441C26.5918 25.2441 23.0996 28.7363 23.0996 33.0442C23.0996 37.352 26.5918 40.8442 30.8996 40.8442Z" stroke="#FEE9D6" stroke-width="1.5" stroke-miterlimit="10"/>
<path d="M30.9004 28.707V37.3841" stroke="#FEE9D6" stroke-width="1.5" stroke-miterlimit="10"/>
<path d="M35.2395 33.0442H26.5625" stroke="#FEE9D6" stroke-width="1.5" stroke-miterlimit="10"/>
</svg>
