<svg width="201" height="113" viewBox="0 0 201 113" fill="none" xmlns="http://www.w3.org/2000/svg">
<rect width="201" height="113" rx="6" fill="#FEE9D6"/>
<mask id="mask0_511_5454" style="mask-type:alpha" maskUnits="userSpaceOnUse" x="0" y="0" width="201" height="113">
<rect width="201" height="113" rx="6" fill="#FEE9D6"/>
</mask>
<g mask="url(#mask0_511_5454)">
<path d="M103.082 -15.5184L117.109 29.6491C117.431 30.678 118.055 31.574 118.893 32.209C119.73 32.844 120.738 33.1857 121.771 33.1851H167.108C168.145 33.1877 169.153 33.534 169.99 34.1745C170.827 34.8149 171.448 35.7165 171.765 36.7498C172.082 37.7831 172.078 38.895 171.754 39.9259C171.43 40.9568 170.803 41.8537 169.962 42.488L133.307 70.3967C132.465 71.0261 131.838 71.9224 131.52 72.9532C131.201 73.9841 131.208 75.0948 131.538 76.1215L145.525 121.289C145.843 122.321 145.84 123.432 145.518 124.462C145.196 125.493 144.571 126.39 143.732 127.025C142.893 127.661 141.884 128.002 140.849 128C139.813 127.998 138.805 127.653 137.969 127.014L101.313 99.1052C100.477 98.4718 99.4717 98.1308 98.4398 98.1308C97.4078 98.1308 96.4021 98.4718 95.566 99.1052L58.8704 127.014C58.0339 127.653 57.0259 127.998 55.9906 128C54.9554 128.002 53.946 127.661 53.1072 127.025C52.2685 126.39 51.6433 125.493 51.3212 124.462C50.9991 123.432 50.9967 122.321 51.3142 121.289L65.3414 76.1215C65.6701 75.1102 65.692 74.0171 65.4042 72.9921C65.1164 71.9672 64.5328 71.0606 63.7337 70.3967L27.0381 42.488C26.1943 41.8516 25.5656 40.9509 25.2426 39.9159C24.9196 38.8808 24.9191 37.765 25.2412 36.7297C25.5633 35.6943 26.1912 34.793 27.0343 34.1559C27.8775 33.5187 28.8922 33.1787 29.9319 33.1851H75.1081C76.1473 33.1881 77.161 32.8481 78.0052 32.2134C78.8494 31.5786 79.4811 30.6813 79.8106 29.6491L93.7975 -15.5184C94.1273 -16.5337 94.7523 -17.4154 95.5849 -18.0398C96.4174 -18.6642 97.4158 -19 98.4398 -19C99.4638 -19 100.462 -18.6642 101.295 -18.0398C102.127 -17.4154 102.752 -16.5337 103.082 -15.5184Z" stroke="#F8D2B0" stroke-miterlimit="10"/>
<path d="M105.513 -56.671L126.983 12.4629C127.476 14.0377 128.432 15.4091 129.713 16.3811C130.995 17.3531 132.537 17.876 134.12 17.8751H203.513C205.099 17.8791 206.643 18.4093 207.924 19.3895C209.204 20.3698 210.155 21.7497 210.64 23.3313C211.125 24.9128 211.12 26.6147 210.624 28.1927C210.128 29.7706 209.168 31.1435 207.881 32.1142L151.775 74.8316C150.487 75.795 149.528 77.1669 149.04 78.7447C148.553 80.3226 148.563 82.0227 149.069 83.5942L170.477 152.728C170.963 154.308 170.96 156.008 170.467 157.585C169.974 159.162 169.017 160.536 167.733 161.508C166.449 162.481 164.904 163.003 163.319 163C161.735 162.997 160.192 162.468 158.912 161.491L102.806 118.773C101.527 117.804 99.9873 117.282 98.4078 117.282C96.8283 117.282 95.289 117.804 94.0092 118.773L37.8424 161.491C36.5621 162.468 35.0192 162.997 33.4346 163C31.85 163.003 30.3051 162.481 29.0213 161.508C27.7374 160.536 26.7805 159.162 26.2875 157.585C25.7945 156.008 25.7908 154.308 26.2769 152.728L47.747 83.5942C48.2501 82.0462 48.2837 80.3731 47.8431 78.8043C47.4026 77.2355 46.5094 75.8478 45.2862 74.8316L-10.8805 32.1142C-12.1719 31.1403 -13.1343 29.7616 -13.6287 28.1773C-14.123 26.5931 -14.1238 24.8853 -13.6308 23.3006C-13.1379 21.7158 -12.1767 20.3362 -10.8862 19.361C-9.59566 18.3858 -8.04257 17.8654 -6.4512 17.8751H62.6961C64.2867 17.8798 65.8383 17.3594 67.1304 16.3878C68.4225 15.4162 69.3894 14.0429 69.8938 12.4629L91.3024 -56.671C91.8071 -58.2251 92.7638 -59.5746 94.0381 -60.5304C95.3124 -61.4861 96.8404 -62 98.4078 -62C99.9751 -62 101.503 -61.4861 102.777 -60.5304C104.052 -59.5746 105.008 -58.2251 105.513 -56.671Z" stroke="#EC9378" stroke-miterlimit="10"/>
<path d="M107.944 -93.8236L136.858 -0.723289C137.521 1.39747 138.808 3.24428 140.534 4.55325C142.26 5.86221 144.337 6.56638 146.468 6.56512H239.917C242.053 6.57053 244.133 7.28446 245.857 8.60454C247.581 9.92461 248.862 11.7829 249.516 13.9128C250.169 16.0426 250.161 18.3345 249.493 20.4594C248.826 22.5844 247.533 24.4332 245.799 25.7405L170.244 83.2666C168.509 84.564 167.217 86.4114 166.561 88.5362C165.905 90.661 165.918 92.9506 166.599 95.0668L195.429 188.167C196.084 190.294 196.079 192.584 195.415 194.708C194.751 196.832 193.462 198.681 191.733 199.991C190.004 201.301 187.924 202.004 185.79 202C183.656 201.996 181.578 201.284 179.854 199.967L104.299 142.441C102.576 141.136 100.503 140.433 98.3758 140.433C96.2487 140.433 94.1758 141.136 92.4523 142.441L16.8145 199.967C15.0903 201.284 13.0125 201.996 10.8786 202C8.74472 202.004 6.66427 201.301 4.93534 199.991C3.20641 198.681 1.91773 196.832 1.25384 194.708C0.589946 192.584 0.584952 190.294 1.23956 188.167L30.1526 95.0668C30.8301 92.9822 30.8754 90.7291 30.2821 88.6165C29.6888 86.5038 28.4861 84.6351 26.8388 83.2666L-48.7991 25.7405C-50.5382 24.4289 -51.8342 22.5723 -52.4999 20.4388C-53.1657 18.3053 -53.1667 16.0055 -52.5029 13.8714C-51.839 11.7373 -50.5447 9.87944 -48.8068 8.56614C-47.0688 7.25284 -44.9773 6.5521 -42.8343 6.56512H50.284C52.4261 6.57144 54.5156 5.87064 56.2556 4.56225C57.9957 3.25386 59.2978 1.40439 59.9769 -0.723289L88.8072 -93.8236C89.487 -95.9164 90.7752 -97.7339 92.4913 -99.0209C94.2074 -100.308 96.2651 -101 98.3758 -101C100.487 -101 102.544 -100.308 104.26 -99.0209C105.976 -97.7339 107.265 -95.9164 107.944 -93.8236Z" stroke="#E34513" stroke-miterlimit="10"/>
</g>
<path d="M123.852 59.6972C123.952 58.7978 124.001 57.8935 124 56.9886C123.997 50.9581 121.815 45.1318 117.855 40.5837C113.895 36.0355 108.424 33.0721 102.452 32.2395C96.4788 31.4069 90.4064 32.7613 85.3536 36.0531C80.3008 39.3449 76.6081 44.3521 74.9562 50.152C73.3043 55.9518 73.8046 62.1533 76.3647 67.6134C78.9249 73.0734 83.3724 77.4241 88.8875 79.8634C94.4026 82.3028 100.614 82.6664 106.376 80.8872C112.138 79.1081 117.063 75.3061 120.242 70.182" stroke="#410F09" stroke-width="2" stroke-miterlimit="10"/>
<path d="M99 38V57.286L93 64" stroke="#410F09" stroke-width="2" stroke-miterlimit="10"/>
<g filter="url(#filter0_dddd_511_5454)">
<path d="M119.155 52.4974L121.158 58.9499C121.204 59.0969 121.294 59.2249 121.413 59.3156C121.533 59.4063 121.677 59.4551 121.824 59.455H128.301C128.449 59.4554 128.593 59.5049 128.713 59.5964C128.832 59.6878 128.921 59.8166 128.966 59.9643C129.012 60.1119 129.011 60.2707 128.965 60.418C128.919 60.5653 128.829 60.6934 128.709 60.784L123.472 64.771C123.352 64.8609 123.263 64.9889 123.217 65.1362C123.172 65.2834 123.173 65.4421 123.22 65.5888L125.218 72.0413C125.263 72.1887 125.263 72.3474 125.217 72.4946C125.171 72.6418 125.082 72.77 124.962 72.8608C124.842 72.9516 124.698 73.0003 124.55 73C124.402 72.9997 124.258 72.9504 124.138 72.8591L118.902 68.8722C118.782 68.7817 118.639 68.733 118.491 68.733C118.344 68.733 118.2 68.7817 118.081 68.8722L112.839 72.8591C112.719 72.9504 112.575 72.9997 112.427 73C112.279 73.0003 112.135 72.9516 112.015 72.8608C111.895 72.77 111.806 72.6418 111.76 72.4946C111.714 72.3474 111.714 72.1887 111.759 72.0413L113.763 65.5888C113.81 65.4443 113.813 65.2882 113.772 65.1417C113.731 64.9953 113.648 64.8658 113.533 64.771L108.291 60.784C108.171 60.6931 108.081 60.5644 108.035 60.4166C107.989 60.2687 107.988 60.1093 108.034 59.9614C108.08 59.8135 108.17 59.6847 108.291 59.5937C108.411 59.5027 108.556 59.4541 108.705 59.455H115.158C115.307 59.4554 115.452 59.4069 115.572 59.3162C115.693 59.2255 115.783 59.0973 115.83 58.9499L117.828 52.4974C117.875 52.3523 117.965 52.2264 118.084 52.1372C118.202 52.048 118.345 52 118.491 52C118.638 52 118.78 52.048 118.899 52.1372C119.018 52.2264 119.107 52.3523 119.155 52.4974Z" fill="#FFF5ED"/>
<path d="M119.155 52.4974L121.158 58.9499C121.204 59.0969 121.294 59.2249 121.413 59.3156C121.533 59.4063 121.677 59.4551 121.824 59.455H128.301C128.449 59.4554 128.593 59.5049 128.713 59.5964C128.832 59.6878 128.921 59.8166 128.966 59.9643C129.012 60.1119 129.011 60.2707 128.965 60.418C128.919 60.5653 128.829 60.6934 128.709 60.784L123.472 64.771C123.352 64.8609 123.263 64.9889 123.217 65.1362C123.172 65.2834 123.173 65.4421 123.22 65.5888L125.218 72.0413C125.263 72.1887 125.263 72.3474 125.217 72.4946C125.171 72.6418 125.082 72.77 124.962 72.8608C124.842 72.9516 124.698 73.0003 124.55 73C124.402 72.9997 124.258 72.9504 124.138 72.8591L118.902 68.8722C118.782 68.7817 118.639 68.733 118.491 68.733C118.344 68.733 118.2 68.7817 118.081 68.8722L112.839 72.8591C112.719 72.9504 112.575 72.9997 112.427 73C112.279 73.0003 112.135 72.9516 112.015 72.8608C111.895 72.77 111.806 72.6418 111.76 72.4946C111.714 72.3474 111.714 72.1887 111.759 72.0413L113.763 65.5888C113.81 65.4443 113.813 65.2882 113.772 65.1417C113.731 64.9953 113.648 64.8658 113.533 64.771L108.291 60.784C108.171 60.6931 108.081 60.5644 108.035 60.4166C107.989 60.2687 107.988 60.1093 108.034 59.9614C108.08 59.8135 108.17 59.6847 108.291 59.5937C108.411 59.5027 108.556 59.4541 108.705 59.455H115.158C115.307 59.4554 115.452 59.4069 115.572 59.3162C115.693 59.2255 115.783 59.0973 115.83 58.9499L117.828 52.4974C117.875 52.3523 117.965 52.2264 118.084 52.1372C118.202 52.048 118.345 52 118.491 52C118.638 52 118.78 52.048 118.899 52.1372C119.018 52.2264 119.107 52.3523 119.155 52.4974Z" stroke="#E44412" stroke-width="2" stroke-miterlimit="10"/>
</g>
<g filter="url(#filter1_dddd_511_5454)">
<path d="M119.155 52.4974L121.158 58.9499C121.204 59.0969 121.294 59.2249 121.413 59.3156C121.533 59.4063 121.677 59.4551 121.824 59.455H128.301C128.449 59.4554 128.593 59.5049 128.713 59.5964C128.832 59.6878 128.921 59.8166 128.966 59.9643C129.012 60.1119 129.011 60.2707 128.965 60.418C128.919 60.5653 128.829 60.6934 128.709 60.784L123.472 64.771C123.352 64.8609 123.263 64.9889 123.217 65.1362C123.172 65.2834 123.173 65.4421 123.22 65.5888L125.218 72.0413C125.263 72.1887 125.263 72.3474 125.217 72.4946C125.171 72.6418 125.082 72.77 124.962 72.8608C124.842 72.9516 124.698 73.0003 124.55 73C124.402 72.9997 124.258 72.9504 124.138 72.8591L118.902 68.8722C118.782 68.7817 118.639 68.733 118.491 68.733C118.344 68.733 118.2 68.7817 118.081 68.8722L112.839 72.8591C112.719 72.9504 112.575 72.9997 112.427 73C112.279 73.0003 112.135 72.9516 112.015 72.8608C111.895 72.77 111.806 72.6418 111.76 72.4946C111.714 72.3474 111.714 72.1887 111.759 72.0413L113.763 65.5888C113.81 65.4443 113.813 65.2882 113.772 65.1417C113.731 64.9953 113.648 64.8658 113.533 64.771L108.291 60.784C108.171 60.6931 108.081 60.5644 108.035 60.4166C107.989 60.2687 107.988 60.1093 108.034 59.9614C108.08 59.8135 108.17 59.6847 108.291 59.5937C108.411 59.5027 108.556 59.4541 108.705 59.455H115.158C115.307 59.4554 115.452 59.4069 115.572 59.3162C115.693 59.2255 115.783 59.0973 115.83 58.9499L117.828 52.4974C117.875 52.3523 117.965 52.2264 118.084 52.1372C118.202 52.048 118.345 52 118.491 52C118.638 52 118.78 52.048 118.899 52.1372C119.018 52.2264 119.107 52.3523 119.155 52.4974Z" fill="#FFF5ED"/>
<path d="M119.155 52.4974L121.158 58.9499C121.204 59.0969 121.294 59.2249 121.413 59.3156C121.533 59.4063 121.677 59.4551 121.824 59.455H128.301C128.449 59.4554 128.593 59.5049 128.713 59.5964C128.832 59.6878 128.921 59.8166 128.966 59.9643C129.012 60.1119 129.011 60.2707 128.965 60.418C128.919 60.5653 128.829 60.6934 128.709 60.784L123.472 64.771C123.352 64.8609 123.263 64.9889 123.217 65.1362C123.172 65.2834 123.173 65.4421 123.22 65.5888L125.218 72.0413C125.263 72.1887 125.263 72.3474 125.217 72.4946C125.171 72.6418 125.082 72.77 124.962 72.8608C124.842 72.9516 124.698 73.0003 124.55 73C124.402 72.9997 124.258 72.9504 124.138 72.8591L118.902 68.8722C118.782 68.7817 118.639 68.733 118.491 68.733C118.344 68.733 118.2 68.7817 118.081 68.8722L112.839 72.8591C112.719 72.9504 112.575 72.9997 112.427 73C112.279 73.0003 112.135 72.9516 112.015 72.8608C111.895 72.77 111.806 72.6418 111.76 72.4946C111.714 72.3474 111.714 72.1887 111.759 72.0413L113.763 65.5888C113.81 65.4443 113.813 65.2882 113.772 65.1417C113.731 64.9953 113.648 64.8658 113.533 64.771L108.291 60.784C108.171 60.6931 108.081 60.5644 108.035 60.4166C107.989 60.2687 107.988 60.1093 108.034 59.9614C108.08 59.8135 108.17 59.6847 108.291 59.5937C108.411 59.5027 108.556 59.4541 108.705 59.455H115.158C115.307 59.4554 115.452 59.4069 115.572 59.3162C115.693 59.2255 115.783 59.0973 115.83 58.9499L117.828 52.4974C117.875 52.3523 117.965 52.2264 118.084 52.1372C118.202 52.048 118.345 52 118.491 52C118.638 52 118.78 52.048 118.899 52.1372C119.018 52.2264 119.107 52.3523 119.155 52.4974Z" stroke="#E44412" stroke-width="2" stroke-miterlimit="10"/>
</g>
<defs>
<filter id="filter0_dddd_511_5454" x="98" y="50" width="33" height="32" filterUnits="userSpaceOnUse" color-interpolation-filters="sRGB">
<feFlood flood-opacity="0" result="BackgroundImageFix"/>
<feColorMatrix in="SourceAlpha" type="matrix" values="0 0 0 0 0 0 0 0 0 0 0 0 0 0 0 0 0 0 127 0" result="hardAlpha"/>
<feOffset/>
<feGaussianBlur stdDeviation="0.5"/>
<feColorMatrix type="matrix" values="0 0 0 0 0.254902 0 0 0 0 0.0588235 0 0 0 0 0.0352941 0 0 0 0.2 0"/>
<feBlend mode="normal" in2="BackgroundImageFix" result="effect1_dropShadow_511_5454"/>
<feColorMatrix in="SourceAlpha" type="matrix" values="0 0 0 0 0 0 0 0 0 0 0 0 0 0 0 0 0 0 127 0" result="hardAlpha"/>
<feOffset dx="-1" dy="1"/>
<feGaussianBlur stdDeviation="1"/>
<feColorMatrix type="matrix" values="0 0 0 0 0.254902 0 0 0 0 0.0588235 0 0 0 0 0.0352941 0 0 0 0.17 0"/>
<feBlend mode="normal" in2="effect1_dropShadow_511_5454" result="effect2_dropShadow_511_5454"/>
<feColorMatrix in="SourceAlpha" type="matrix" values="0 0 0 0 0 0 0 0 0 0 0 0 0 0 0 0 0 0 127 0" result="hardAlpha"/>
<feOffset dx="-3" dy="3"/>
<feGaussianBlur stdDeviation="1.5"/>
<feColorMatrix type="matrix" values="0 0 0 0 0.254902 0 0 0 0 0.0588235 0 0 0 0 0.0352941 0 0 0 0.1 0"/>
<feBlend mode="normal" in2="effect2_dropShadow_511_5454" result="effect3_dropShadow_511_5454"/>
<feColorMatrix in="SourceAlpha" type="matrix" values="0 0 0 0 0 0 0 0 0 0 0 0 0 0 0 0 0 0 127 0" result="hardAlpha"/>
<feOffset dx="-6" dy="5"/>
<feGaussianBlur stdDeviation="1.5"/>
<feColorMatrix type="matrix" values="0 0 0 0 0.254902 0 0 0 0 0.0588235 0 0 0 0 0.0352941 0 0 0 0.03 0"/>
<feBlend mode="normal" in2="effect3_dropShadow_511_5454" result="effect4_dropShadow_511_5454"/>
<feBlend mode="normal" in="SourceGraphic" in2="effect4_dropShadow_511_5454" result="shape"/>
</filter>
<filter id="filter1_dddd_511_5454" x="98" y="50" width="33" height="32" filterUnits="userSpaceOnUse" color-interpolation-filters="sRGB">
<feFlood flood-opacity="0" result="BackgroundImageFix"/>
<feColorMatrix in="SourceAlpha" type="matrix" values="0 0 0 0 0 0 0 0 0 0 0 0 0 0 0 0 0 0 127 0" result="hardAlpha"/>
<feOffset/>
<feGaussianBlur stdDeviation="0.5"/>
<feColorMatrix type="matrix" values="0 0 0 0 0.254902 0 0 0 0 0.0588235 0 0 0 0 0.0352941 0 0 0 0.2 0"/>
<feBlend mode="normal" in2="BackgroundImageFix" result="effect1_dropShadow_511_5454"/>
<feColorMatrix in="SourceAlpha" type="matrix" values="0 0 0 0 0 0 0 0 0 0 0 0 0 0 0 0 0 0 127 0" result="hardAlpha"/>
<feOffset dx="-1" dy="1"/>
<feGaussianBlur stdDeviation="1"/>
<feColorMatrix type="matrix" values="0 0 0 0 0.254902 0 0 0 0 0.0588235 0 0 0 0 0.0352941 0 0 0 0.17 0"/>
<feBlend mode="normal" in2="effect1_dropShadow_511_5454" result="effect2_dropShadow_511_5454"/>
<feColorMatrix in="SourceAlpha" type="matrix" values="0 0 0 0 0 0 0 0 0 0 0 0 0 0 0 0 0 0 127 0" result="hardAlpha"/>
<feOffset dx="-3" dy="3"/>
<feGaussianBlur stdDeviation="1.5"/>
<feColorMatrix type="matrix" values="0 0 0 0 0.254902 0 0 0 0 0.0588235 0 0 0 0 0.0352941 0 0 0 0.1 0"/>
<feBlend mode="normal" in2="effect2_dropShadow_511_5454" result="effect3_dropShadow_511_5454"/>
<feColorMatrix in="SourceAlpha" type="matrix" values="0 0 0 0 0 0 0 0 0 0 0 0 0 0 0 0 0 0 127 0" result="hardAlpha"/>
<feOffset dx="-6" dy="5"/>
<feGaussianBlur stdDeviation="1.5"/>
<feColorMatrix type="matrix" values="0 0 0 0 0.254902 0 0 0 0 0.0588235 0 0 0 0 0.0352941 0 0 0 0.03 0"/>
<feBlend mode="normal" in2="effect3_dropShadow_511_5454" result="effect4_dropShadow_511_5454"/>
<feBlend mode="normal" in="SourceGraphic" in2="effect4_dropShadow_511_5454" result="shape"/>
</filter>
</defs>
</svg>
